<svg xmlns="http://www.w3.org/2000/svg" width="31" height="28" viewBox="0 0 31 28"><path fill="#00AF66" d="M.926.001A1.028 1.028 0 000 1.026v25.95C0 27.54.463 28 1.033 28h28.934c.57 0 1.033-.459 1.033-1.024V9.903c0-.565-.463-1.024-1.033-1.024H17.91V1.026C17.911.46 17.448 0 16.878 0H1.033a1.042 1.042 0 00-.107 0zm1.14 2.05h13.778v23.9H13.09v-5.804c0-.566-.463-1.025-1.033-1.025h-6.2a1.043 1.043 0 00-.108 0 1.028 1.028 0 00-.926 1.025v5.804H2.067v-23.9zm6.879 1.343a1.058 1.058 0 00-.108.011c-.528.06-.924.508-.915 1.035v.448c-.42.092-.823.247-1.195.48-.668.421-1.216 1.205-1.216 2.113 0 .928.557 1.694 1.141 2.134.584.44 1.216.685 1.744.897.509.203.994.421 1.27.63.276.207.323.281.323.5 0 .202-.035.244-.258.385-.224.14-.65.266-1.12.266-.7 0-1.242-.301-1.367-.416a1.04 1.04 0 00-1.029-.265 1.02 1.02 0 00-.37 1.77c.43.395 1.017.701 1.733.853v.449c-.005.369.19.713.512.899.322.186.72.186 1.042 0 .322-.186.518-.53.512-.9v-.448c.421-.091.824-.246 1.195-.48.669-.42 1.217-1.204 1.217-2.112 0-.929-.557-1.694-1.141-2.134-.585-.441-1.216-.686-1.744-.897-.51-.203-.995-.421-1.27-.63-.276-.207-.323-.281-.323-.5 0-.203.034-.244.258-.385.224-.14.65-.267 1.12-.267.7 0 1.242.302 1.367.416.267.27.662.372 1.028.265a1.02 1.02 0 00.37-1.77c-.43-.394-1.016-.7-1.732-.853V4.44a1.02 1.02 0 00-.299-.742 1.038 1.038 0 00-.745-.304zm8.966 7.534h11.022V25.95H17.911V10.928zM6.89 21.17h4.133v4.78H6.89v-4.78z"/></svg>