<svg xmlns="http://www.w3.org/2000/svg" width="29" height="30" viewBox="0 0 29 30"><g fill="#00AF66" fill-rule="evenodd" stroke="#00AF66" stroke-width=".6"><path fill-rule="nonzero" d="M26.887 27.291v-2.055a4.513 4.513 0 00-2.399-3.989 3.642 3.642 0 001.358-4.064 3.613 3.613 0 00-3.442-2.532 3.613 3.613 0 00-3.441 2.532 3.642 3.642 0 001.357 4.064 4.513 4.513 0 00-2.399 3.989v2.055c0 .33.265.596.593.596h7.781a.594.594 0 00.592-.596zM19.98 18.29a2.44 2.44 0 011.497-2.254 2.416 2.416 0 012.644.53 2.45 2.45 0 01.526 2.658 2.426 2.426 0 01-2.241 1.506 2.433 2.433 0 01-2.426-2.44zm5.723 8.406h-6.597v-1.46a3.308 3.308 0 013.298-3.218 3.308 3.308 0 013.299 3.219v1.46zM9.325 10.59v2.055c0 .329.265.595.592.595h7.785a.594.594 0 00.592-.595v-2.056a4.513 4.513 0 00-2.411-3.985 3.642 3.642 0 001.37-4.066A3.613 3.613 0 0013.809 0a3.613 3.613 0 00-3.443 2.538 3.642 3.642 0 001.37 4.066 4.513 4.513 0 00-2.411 3.985h0zm2.073-6.947A2.44 2.44 0 0112.9 1.388a2.416 2.416 0 012.646.535c.692.701.896 1.753.516 2.664a2.426 2.426 0 01-2.252 1.496 2.433 2.433 0 01-2.423-2.44h.012zm2.411 3.631a3.312 3.312 0 013.3 3.315v1.46h-6.6v-1.46a3.312 3.312 0 013.3-3.315zM8.966 27.193v-2.056a4.513 4.513 0 00-2.399-3.988 3.642 3.642 0 001.357-4.065 3.613 3.613 0 00-3.44-2.532 3.613 3.613 0 00-3.442 2.532 3.642 3.642 0 001.357 4.065A4.513 4.513 0 000 25.137v2.056c0 .329.265.595.592.595h7.782a.594.594 0 00.592-.595zM2.06 18.19a2.44 2.44 0 011.497-2.254 2.416 2.416 0 012.644.529 2.45 2.45 0 01.526 2.659 2.426 2.426 0 01-2.241 1.506 2.433 2.433 0 01-2.426-2.44zm5.722 8.406H1.185v-1.46a3.308 3.308 0 013.298-3.219 3.308 3.308 0 013.298 3.22v1.459z" transform="translate(1 1)"/><path d="M14.399 19.466L14.399 15.513 13.214 15.513 13.214 19.469 9.582 21.646 10.19 22.671 13.809 20.5 17.429 22.671 18.036 21.646z" transform="translate(1 1)"/></g></svg>