<svg xmlns="http://www.w3.org/2000/svg" width="22" height="31" viewBox="0 0 22 31"><g fill="#00AF66" fill-rule="evenodd" stroke="#00AF66" stroke-width=".5"><path d="M13.573 7.285L9.384 12.77l-.934-.919a.8.8 0 00-1.116 0 .766.766 0 000 1.096l1.578 1.55a.796.796 0 00.558.228c.019 0 .036 0 .056-.002a.794.794 0 00.575-.308l4.735-6.2a.765.765 0 00-.158-1.085.8.8 0 00-1.105.155z"/><path fill-rule="nonzero" d="M21.307 10.85c0-5.555-4.603-10.075-10.26-10.075C5.392.775.79 5.295.79 10.85c0 3.878 2.246 7.245 5.524 8.93v9.67c0 .298.174.569.447.698.274.13.598.094.835-.093l3.453-2.711 3.453 2.712a.798.798 0 00.835.091.772.772 0 00.447-.697v-9.67c3.278-1.685 5.524-5.052 5.524-8.93zm-7.103 16.988l-2.664-2.094a.801.801 0 00-.986 0L7.89 27.838v-7.406a10.362 10.362 0 006.313 0v7.406zm-3.156-8.463c-4.787 0-8.68-3.825-8.68-8.525s3.893-8.525 8.68-8.525 8.68 3.825 8.68 8.525-3.893 8.525-8.68 8.525z"/></g></svg>