<svg xmlns="http://www.w3.org/2000/svg" width="480" height="412" viewBox="0 0 480 412"><g fill="none" fill-rule="evenodd"><path fill="#001A72" d="M0 46l317 183L0 412z"/><path fill="#FEDD00" d="M316 136.746l-159 91.746v-6.23l148.203-85.516L157 51.23V45l159 91.746zm-27.552 0L157 60.898v-6.23l142.245 82.078L157 218.825v-6.23l131.448-75.849zM157 202.926l114.693-66.18L157 70.566v-6.23l125.49 72.41L157 209.157v-6.23zm97.939-66.18L157 80.234v-6.23l108.736 62.742L157 199.489v-6.23l97.939-56.513zM157 183.592l81.184-46.846L157 89.901v-6.23l91.982 53.075L157 189.822v-6.23zm0-51.583l8.21 4.737-8.21 4.737v-9.474zm64.43 4.737L157 99.569v-6.23l75.227 43.407L157 180.154v-6.23l64.43-37.178zM157 103.006l58.472 33.74L157 170.487v-6.231l47.675-27.51L157 109.236v-6.23zm0 48.145v-6.23l14.166-8.175L157 128.572v-6.23l24.963 14.404L157 151.151zm30.92-14.405L157 118.904v-6.23l41.718 24.072L157 160.819v-6.23l30.92-17.843z"/><path fill="#00A9CE" d="M77 0l80 46-80 46z"/><path stroke="#00A9CE" stroke-width="4" d="M317 47l159 91-159 91z"/></g></svg>