<svg xmlns="http://www.w3.org/2000/svg" width="512" height="338" viewBox="0 0 512 338"><g fill="none" fill-rule="evenodd"><path fill="#5461C8" d="M0 0l292 169L0 338z"/><path fill="#FEDD00" d="M292 84l74 42-74 42z"/><path stroke="#5461C8" stroke-width="3" d="M365 126l147 84.5L365 295z"/><path fill="#FF585D" d="M219 285.474a74.881 74.881 0 0 0 24.471-4.555L219 295.02v-9.545zm24.428-145.398A74.832 74.832 0 0 0 219 135.538V126l24.428 14.076zm109.45 63.068l12.784 7.366-12.783 7.367c.134-2.442.211-4.897.211-7.372 0-2.47-.077-4.924-.211-7.361zm-16.02-9.232l13.17 7.589c.203 2.976.315 5.977.315 9.004 0 3.03-.112 6.034-.316 9.014l-13.17 7.589a120.395 120.395 0 0 0 .001-33.195zm-13.933 16.593c0-9.19-1.204-18.1-3.435-26.602l14.324 8.255a117.51 117.51 0 0 1 1.446 18.347c0 6.246-.502 12.374-1.448 18.357l-14.325 8.255a104.651 104.651 0 0 0 3.438-26.612zm-15.083 0a89.346 89.346 0 0 0-8.555-38.242l16.81 9.686a101.833 101.833 0 0 1 4.08 28.556c0 9.913-1.437 19.496-4.083 28.567l-16.813 9.688c5.487-11.617 8.56-24.584 8.56-38.255zm-15.082 0c0-23.142-10.561-43.866-27.122-57.632l29.333 16.903a86.62 86.62 0 0 1 10.124 40.729c0 14.707-3.668 28.572-10.13 40.742l-29.36 16.917c16.58-13.765 27.155-34.502 27.155-57.66zm-15.083 0c0-32.588-26.197-59.183-58.677-59.914V138.28c39.281.734 71.012 32.85 71.012 72.226 0 39.377-31.73 71.493-71.012 72.226v-12.31c32.48-.732 58.677-27.327 58.677-59.916zm-15.084 0c0-24.286-19.432-44.115-43.593-44.844v-12.31c30.963.733 55.929 26.08 55.929 57.154 0 31.076-24.966 56.423-55.929 57.157V255.35c24.16-.73 43.593-20.558 43.593-44.845zm-15.083 0c0-15.986-12.668-29.071-28.51-29.79v-12.311c22.645.728 40.846 19.327 40.846 42.1 0 22.777-18.201 41.376-40.846 42.103v-12.31c15.842-.72 28.51-13.805 28.51-29.792zM219 222.452v-23.893c6.002.684 10.68 5.777 10.68 11.946 0 6.17-4.678 11.264-10.68 11.947zm13.428-11.947c0-7.682-5.909-14.008-13.428-14.702v-12.346c14.328.717 25.763 12.574 25.763 27.048 0 14.475-11.435 26.333-25.763 27.05v-12.346c7.52-.695 13.428-7.02 13.428-14.704z"/></g></svg>