<svg xmlns="http://www.w3.org/2000/svg" width="515" height="448" viewBox="0 0 515 448"><g fill="none" fill-rule="evenodd"><path fill="#FF8200" d="M0 448l343-199.5L0 49z"/><path fill="#00A9CE" d="M256 99l88-49.5L256 0z"/><path fill="#001A72" d="M346.078 243.632l162.765-94.633-162.765-94.632v189.265zM343 249V49l172 100-172 100z"/><path fill="#001A72" d="M305.844 157.069v13.542l35.386-20.31-35.386 6.768zm0-10.78H344l-38.156-21.9v21.9zm-54.276-35.859l44.937 8.598-74.89-42.983 29.953 34.385zm-43.305-24.025l5.234-15.02-36.632-21.025 31.398 36.045zM172 95.203l29.535 5.652L172 50v45.203zm26.082 104.885H172V245l26.082-44.912zm39.97.003l-16.434 18.863 32.864-18.863h-16.43zm56.093-40.784l9.252 10.621v-12.391l-9.252 1.77zm-9.221-10.586l7.372 8.464 11.101-2.125v-6.339h-18.473zm-.002-2.432h18.475v-21.207l-18.475 21.207zm-2.676-.642l20.063-23.031-48.153-9.215 28.09 32.246zm-54.942-37.385l33.125 38.027h19.14l-29.296-33.63-22.969-4.397zm-2.589-2.97l22.97 4.394-32.104-36.853-5.468 15.694 14.602 16.765zm-19.165-3.669l15.282 2.926-11.644-13.368-3.638 10.442zm-1.898-1.985l3.686-10.58-29.496-33.861 25.81 44.441zm-11.188 32.107l9.849-28.265-29.546-5.653 19.697 33.918zm21.243 41.44l-20.684-35.615-20.936 60.084 27.408.002 14.212-24.472zm-12.8 26.903l-23.067 39.718 34.602-39.718h-11.534zm37.83-30.182l-22.838 4.368-13.58 23.382h12.242l24.175-27.75zm4.804 3.282l-1.772-3.049-23.972 27.518h11.532l14.212-24.47zm-12.8 26.901l-8.148 14.03 12.222-14.03h-4.073zm18.684-16.769l-4.472-7.7-12.8 22.037h4.78l12.492-14.337zm1.294 2.23l-10.55 12.109h17.583l-7.033-12.11zm-1.255-17.696l-3.099 5.334 4.755 8.187 14.465-16.605-16.121 3.084zm-1.56-2.178l4.492-7.735-7.188 8.25 2.696-.515zm-4.017 3.244l1.066 1.837 1.332-2.296-2.398.46zm-39.676-63.456l-10.128 29.067 21.66 37.296 24.308-4.65-35.84-61.713zm37.96 60.501l16.08-18.46-34.83-39.985-17.09-3.27 35.84 61.715zm29.886-4.91l17.465-3.34-7.277-8.355-10.188 11.696zm7.51-12.334h-18.99l-9.495 16.346 17.092-3.27 11.393-13.076zM172 190.475l19.405-55.691L172 101.369v89.106zm133.844-35.883l30.696-5.87h-30.696v5.87zm-3.392 17.966l-11.08-12.72-21.904 4.189-17.055 19.577 7.698 13.256 42.341-24.302zm-87.82 50.405l13.285-22.874h-12.239l-38.812 44.55 37.766-21.676z"/></g></svg>