<svg xmlns="http://www.w3.org/2000/svg" xmlns:xlink="http://www.w3.org/1999/xlink" width="352" height="104" viewBox="0 0 352 104"><defs><path id="a" d="M0 0h352v104H0z"/></defs><g fill="none" fill-rule="evenodd"><mask id="b" fill="#fff"><use xlink:href="#a"/></mask><g mask="url(#b)"><path fill="#753BBD" d="M0-204L236.8-68 0 68z"/><path fill="#00A9CE" d="M173.8 33.8L236.2 69l-62.4 35.2z"/><path fill="#FF585D" d="M235-69L352 0 235 69z"/><path fill="#000" d="M113-70L236 1 113 72V-70zm2.201 3.811V68.19L231.597 1 115.201-66.189zM117 38.911c0-.7.765-1.138 1.376-.788l21.165 12.119a.906.906 0 0 1 0 1.576l-.104.06a.927.927 0 0 1-.918 0L117.46 39.82a.907.907 0 0 1-.459-.788zM144.01 24c.54-.002.99.396.99.924v25.088c0 .33-.18.636-.473.801l-.109.061c-.63.357-1.418-.089-1.418-.801v-25.15c0-.527.45-.925.99-.923zm3.174-2.551c.252-.43.83-.576 1.277-.329l22.07 12.151a.874.874 0 0 1 0 1.55l-.107.06a.981.981 0 0 1-.939 0L147.47 22.759c-.45-.248-.604-.796-.339-1.221l.054-.09zm-7.644-.33c.448-.245 1.024-.1 1.277.328.017.03.035.06.054.089.264.423.11.968-.34 1.215L118.408 34.88c-.625.342-1.407-.087-1.407-.772v-.118c0-.318.179-.612.47-.771zM173.01 5c.54 0 .99.397.99.925v25.087c0 .33-.18.635-.473.801l-.109.061c-.63.357-1.418-.089-1.418-.801V5.925c0-.528.45-.926.99-.925zM117 4.892c0-.685.782-1.114 1.407-.772l22.124 12.128c.448.246.604.79.34 1.214-.02.03-.036.06-.055.09-.251.43-.828.574-1.277.328l-22.07-12.099a.882.882 0 0 1-.469-.77zm60.183-1.442c.252-.431.83-.577 1.278-.33l22.07 12.151a.874.874 0 0 1 0 1.55l-.107.059a.977.977 0 0 1-.939 0L177.468 4.759c-.448-.248-.603-.795-.339-1.22.018-.029.037-.058.054-.089zm-6.643-.335c.448-.236 1.025-.097 1.277.317l.054.085c.264.408.11.933-.339 1.171L148.46 16.885c-.449.237-1.025.097-1.276-.317a2.485 2.485 0 0 0-.055-.086c-.264-.407-.109-.933.34-1.17zM144.01-12c.54-.002.99.394.99.92v26.16c0 .526-.45.922-.99.92h-.02c-.54.002-.99-.394-.99-.92v-26.16c0-.526.45-.922.99-.92zM204-10.066c0-.718.788-1.167 1.418-.808l.109.063a.929.929 0 0 1 .473.806v24.01a.93.93 0 0 1-.473.807l-.109.062c-.63.359-1.418-.09-1.418-.807zm-4.515-4.814c.29-.16.648-.16.939 0l.107.06a.874.874 0 0 1 0 1.55l-22.07 12.15c-.448.246-1.026.102-1.278-.33a5.151 5.151 0 0 0-.054-.089c-.264-.425-.11-.973.34-1.22zm-52.301.311c.252-.414.827-.553 1.275-.315l23.073 12.196c.449.238.603.763.339 1.171a3.124 3.124 0 0 0-.054.086c-.252.413-.828.552-1.276.316l-23.073-12.198c-.449-.237-.603-.764-.338-1.171l.054-.085zm-7.645-.311c.448-.246 1.024-.102 1.277.327l.054.088c.265.424.11.97-.339 1.216L118.407-1.12c-.625.342-1.407-.087-1.407-.773v-.117c0-.318.179-.613.47-.771zM172-29.072c0-.714.787-1.16 1.418-.802l.109.06a.924.924 0 0 1 .473.803v25.086c0 .528-.45.926-.99.925h-.02c-.54 0-.99-.397-.99-.925zm-2.515-3.808c.29-.16.648-.16.938 0l.108.06a.874.874 0 0 1 0 1.55l-22.07 12.15c-.45.247-1.026.101-1.278-.33l-.054-.09c-.264-.425-.109-.972.34-1.219zM117-32.108c0-.685.782-1.114 1.407-.771l22.124 12.128c.449.246.604.79.34 1.214a3.22 3.22 0 0 0-.054.089c-.252.43-.83.574-1.278.328l-22.07-12.098a.884.884 0 0 1-.469-.772zm26-13.964c0-.713.788-1.16 1.418-.802l.109.06a.923.923 0 0 1 .473.804v25.085c0 .528-.45.927-.99.925h-.02c-.54.002-.99-.397-.99-.925zm-4.516-3.812a1.01 1.01 0 0 1 .94 0l.107.057a.83.83 0 0 1 0 1.496l-21.123 11.214c-.625.332-1.408-.083-1.408-.748v-.114c0-.308.179-.593.47-.748z"/></g></g></svg>