<svg xmlns="http://www.w3.org/2000/svg" width="443" height="382" viewBox="0 0 443 382"><g fill="none" fill-rule="evenodd"><path fill="#00AF66" d="M0 43.747l292.41 168.846L0 381.439z"/><path fill="#BFDFF0" d="M72.143 0l73.679 42.212-73.679 42.211z"/><path stroke="#00AF66" stroke-width="4" d="M293 41l146 84.5L293 210z"/><path fill="#5461C8" d="M260.81 125.496l15.576-9.014v18.03l-15.576-9.016zm-1.018 19.799v-18.03l15.576 9.015-15.576 9.015zm-17.614-9.013l15.576-9.015v18.03l-15.576-9.015zm-1.018 19.798v-18.029l15.575 9.015-15.575 9.014zm-17.614-9.014l15.576-9.015v18.03l-15.576-9.015zm-1.019 19.798v-18.03l15.577 9.015-15.577 9.015zm-36.245 1.768l15.577-9.014v18.031l-15.577-9.017zm-1.018 19.8v-18.03l15.576 9.014-15.576 9.015zm-17.614-9.014l15.576-9.015v18.031l-15.576-9.016zm-1.019 19.8v-18.031l15.577 9.015-15.577 9.016zm-17.613-9.016l15.577-9.015v18.03l-15.577-9.015zM148 210v-18.03l15.576 9.015L148 210zm15.576-30.581L148 188.434v-18.03l15.576 9.015zm1.019-19.8v18.03l-15.577-9.015 15.577-9.014zm-1.02-1.768L148 166.867v-18.03l15.576 9.014zm1.02-19.799v18.031l-15.577-9.014 15.577-9.017zm0-43.133v18.03l-15.577-9.016 15.577-9.014zm-1.02-1.77L148 102.166v-18.03l15.576 9.015zm1.02-19.798v18.03l-15.577-9.014 15.577-9.016zm-1.02-1.769L148 80.6V62.568l15.576 9.014zm1.02-19.798v18.03L149.018 60.8l15.577-9.015zM148 41l15.576 9.016L148 59.03V41zm18.631 28.814v-18.03l15.577 9.015-15.577 9.015zm16.595 10.782v.003l-15.576-9.017 15.576-9.014v18.028zm2.038 0v-18.03l15.576 9.014-15.576 9.016zm16.595 10.784l-15.577-9.016 15.577-9.015V91.38zm2.037 0V73.35l15.576 9.014-15.576 9.016zm18.631 10.783v-18.03l15.577 9.015-15.577 9.015zm16.595 10.783l-15.576-9.015 15.576-9.014v18.029zm2.038 0v-18.03l15.575 9.015-15.575 9.015zm0 3.538l15.575 9.014-15.575 9.016v-18.03zm-18.633 10.785v-.002l15.577 9.015-15.577 9.016v-18.03zm-17.611 30.581l15.574-9.013v18.027l-15.574-9.014zm-1.02 1.77l15.574 9.013-15.574 9.016v-18.03zm-18.632-10.782v-.001l15.575 9.013-15.575 9.014v-18.026zM166.63 159.62l15.577 9.014-15.577 9.016v-18.03zM148 123.73v-18.029l15.576 9.016L148 123.73zm18.631-28.812l15.577 9.014-15.577 9.016v-18.03zm18.633 7.244v-18.03l15.576 9.015-15.576 9.015zm37.263 3.537l15.577 9.015-15.577 9.015V105.7zm-2.037 39.6l-15.576-9.016 15.576-9.015v18.03zm-16.594-7.248l15.576 9.017-15.576 9.014v-18.03zm-37.265.003l15.575 9.015-15.575 9.013v-18.028zm-2.036-3.539l-15.575-9.015 15.575-9.014v18.03zm55.895-32.353v.002l-15.576-9.015 15.576-9.016v18.029zm-16.594 32.353v-18.03l15.576 9.014-15.576 9.016zM185.264 145.3v-18.031l15.576 9.015-15.576 9.016zm-2.038-.002v.002l-15.574-9.015 15.574-9.014v18.027zm-1.018-19.795l-15.577 9.015v-18.03l15.577 9.015zm1.018-1.769l-15.576-9.015 15.576-9.014v18.03zm17.614-9.016l-15.576 9.014v-18.03l15.576 9.016zm1.019-1.77l-15.577-9.015 15.577-9.014v18.03zm0 21.568l-15.577-9.016 15.577-9.015v18.031zm2.037-21.567v-18.03l15.576 9.014-15.576 9.016zm16.594 10.781v.001l-15.576-9.013 15.576-9.016v18.028zm-18.631 32.351l-15.575-9.014 15.575-9.015v18.03zm-18.633-71.947v18.031L167.65 93.15l15.576-9.016zm-16.595-10.783l15.577 9.016-15.577 9.014v-18.03zM148 127.271l15.575 9.014L148 145.3v-18.03zm35.226 39.596l-15.576-9.016 15.576-9.014v18.03zm55.896-32.353l-15.576-9.016 15.576-9.014v18.03zm18.632-10.786v.002l-15.576-9.015 15.576-9.015v18.028zm2.038-18.03l15.576 9.015-15.576 9.015v-18.03zm18.631 28.815v-18.031L294 125.496l-15.577 9.017z"/></g></svg>