<svg xmlns="http://www.w3.org/2000/svg" width="41" height="41" viewBox="0 0 41 41"><path fill="#D71920" fill-rule="nonzero" stroke="#D71920" stroke-width=".6" d="M38.3 8.75c1.655-1.656 2.257-4.901.555-6.604-.667-.667-1.6-1.02-2.698-1.02-1.416 0-2.95.618-3.908 1.575l-5.886 5.886L9.075 2.556l-4.38 4.377 14.655 8.78-5.65 6.436-6.4-.599-2.715 2.717 6.115 3.067c-.238.892-.05 1.793.563 2.409.591.586 1.508.797 2.405.559l3.07 6.115 2.714-2.716-.597-6.398 6.435-5.651 8.777 14.654 4.378-4.38-6.034-17.288 5.89-5.888zM36.144 31.4l-1.678 1.679-8.692-14.512-9.004 7.907.604 6.477-.091.092-2.767-5.513-.944.645c-.212.144-.447.228-.645.228-.08 0-.189-.014-.25-.074-.113-.115-.124-.489.153-.894l.648-.945-5.518-2.768.092-.092 6.478.606 7.906-9.005L7.923 6.536 9.6 4.858l17.288 6.031 6.774-6.774c.592-.592 1.595-.99 2.494-.99.388 0 .925.076 1.284.434.828.83.39 2.83-.555 3.776l-6.777 6.776L36.143 31.4zM6.905 11.507L.42 17.993l1.414 1.414 6.486-6.486-1.415-1.413zm-3.64 24.814l1.414 1.414 5.27-5.27-1.414-1.415-5.27 5.271zm18.328 2.845l1.414 1.414 6.486-6.486-1.414-1.414-6.486 6.486z"/></svg>