<svg xmlns="http://www.w3.org/2000/svg" width="58" height="39" viewBox="0 0 58 39"><g fill="#D71920" fill-rule="evenodd"><path d="M56 36.582H1.143a1.143 1.143 0 1 0 0 2.285H56a1.142 1.142 0 1 0 0-2.285z"/><path fill-rule="nonzero" d="M7.967 24.314a1.146 1.146 0 0 0 1.494.619l17.297-7.165-.593 8.352c-.028.395.15.777.472 1.01a1.146 1.146 0 0 0 1.105.127l8.447-3.5c.332-.136.58-.423.67-.772l2.694-10.518 14.254-5.904c.583-.24.86-.91.618-1.493L52.677.847a1.132 1.132 0 0 0-1.138-.703l-7.211.512c-.121.01-.242.038-.357.085L14.973 12.752 8.634 8.506A1.146 1.146 0 0 0 7.561 8.4l-4.224 1.752c-.583.241-.86.91-.618 1.494l5.248 12.668zM7.87 10.747l6.338 4.246c.319.214.721.254 1.073.106L44.674 2.925l6.205-.442.996 2.407-13.725 5.686c-.333.138-.58.424-.67.773l-2.695 10.517-6.21 2.573.593-8.353a1.145 1.145 0 0 0-1.577-1.137L9.64 22.383 5.27 11.825l2.6-1.078z"/></g></svg>