<svg data-v-498c4876="" width="16px" height="20px" viewBox="0 0 16 20" version="1.1" xmlns="http://www.w3.org/2000/svg" xmlns:xlink="http://www.w3.org/1999/xlink" focusable="false" class="list-item-link-icon"><g data-v-498c4876="" id="Mocks" stroke="none" stroke-width="1" fill="none" fill-rule="evenodd"><g data-v-498c4876="" id="Next18_LP-Add-to-Cal" transform="translate(-615.000000, -553.000000)" fill="#212529" class="Fill-1"><g data-v-498c4876="" id="Group-29" transform="translate(589.000000, 390.000000)"><g data-v-498c4876="" id="Copy-LInk-Copy"><g data-v-498c4876="" id="apple" transform="translate(26.000000, 163.000000)"><path data-v-498c4876="" d="M11.9442321,2.76437763 C12.6167981,2.02956391 13.1064881,1.01889779 12.9800423,0 C11.9755823,0.032194975 10.7794682,0.579875403 10.0669829,1.31926227 C9.42514009,1.95602766 8.86794276,3.00657165 9.02761972,3.99510372 C10.1196512,4.05821319 11.2417789,3.5037645 11.9442321,2.76437763" id="Fill-2"></path> <path data-v-498c4876="" d="M13.7741709,12.5155921 L13.7581097,12.5114128 L13.7581097,12.4848743 C13.4458554,11.8548456 13.3035992,10.8699949 13.4231194,10.0721676 L13.4231194,10.0422857 L13.4239538,10.0422857 C13.5488972,8.99746208 14.2209637,7.92860754 14.757866,7.54056006 L14.7787246,7.52467874 L14.7787246,7.52217116 L14.7799762,7.52217116 C14.8992878,7.39094132 15.2386584,7.11782443 15.4678952,6.95253334 C14.6214502,5.70438707 13.2349742,5.03131171 11.8230505,5.00978835 C10.3996546,4.8898426 8.92223477,5.91230697 8.12564201,5.88890292 C7.35491401,5.91230697 6.19058283,4.98951877 4.96200694,5.04802889 L4.94970032,5.04614821 C4.92237546,5.04614821 4.70106493,5.05826816 4.70106493,5.05826816 C3.07241967,5.09859835 1.62879085,6.05983606 0.809253547,7.5177829 L0.809253547,7.52217116 L0.804038878,7.52217116 L0.804038878,7.5177829 C0.479895086,8.04312021 0.0908808172,9.26723553 0.0328937037,10.0422857 L0.0328937037,10.0834517 C-0.0457434969,10.5753547 0.0301820761,11.8855635 0.118414267,12.5155921 L0.124046109,12.5473547 L0.125714803,12.5461009 C0.19433984,13.1740399 0.513060377,14.387916 0.75147502,14.9813758 L0.75147502,14.9868089 L0.750432086,14.9868089 C0.979460326,15.6425401 1.61961303,16.8725065 2.03303195,17.5014903 L2.03303195,17.5062965 L2.03741227,17.5062965 C2.87196781,18.7065898 3.85482853,20.056084 5.15015218,19.9982007 C6.4018812,19.9503478 6.8626493,19.1652674 8.37010567,19.1773873 C9.87672769,19.1652674 10.293484,19.9603781 11.6140466,19.9662291 C12.9602655,19.9085549 13.7941952,18.7084705 14.6293765,17.5062965 C15.0382065,16.8867161 15.6796108,15.6945724 15.9063446,14.9868089 L15.9094734,14.9868089 C15.9349209,14.9119995 15.9728837,14.7970689 16,14.713483 C15.1147579,14.4618895 14.1216764,13.2937767 13.7741709,12.5155921" id="Fill-4"></path></g></g></g></g></g></svg>