<svg xmlns="http://www.w3.org/2000/svg" width="52" height="25" viewBox="0 0 52 25"><g fill="none" fill-rule="evenodd"><path fill="#D71920" fill-rule="nonzero" d="M39.203 25c-1.62 0-3.018-.606-4.157-1.802a5.869 5.869 0 0 1-1.3-1.922 1.352 1.352 0 0 1-.572.127H21.496c-.215 0-.42-.05-.6-.14a5.982 5.982 0 0 1-1.321 1.95C18.44 24.4 17.034 25 15.398 25c-1.62 0-3.017-.606-4.155-1.801a5.886 5.886 0 0 1-1.29-1.897 1.337 1.337 0 0 1-.514.102H1.378c-.76 0-1.378-.632-1.378-1.41V9.414c0-.613.387-1.155.958-1.343L5.995 6.42 11.54.44c.26-.28.622-.439 1-.439h18.568c.338 0 .665.128.917.358l6.15 5.622 7.227 1.305c2.397.487 4.158 1.612 5.264 3.346 1.454 2.28 1.716 5.442.803 9.668-.14.645-.7 1.105-1.346 1.105h-4.892c-.192 0-.376-.04-.543-.114a5.98 5.98 0 0 1-1.324 1.938C42.255 24.394 40.845 25 39.203 25zm-3.111-5.48c.117.646.412 1.196.9 1.68.646.677 1.339.979 2.212.979.895 0 1.6-.302 2.216-.95.517-.512.812-1.062.93-1.707.015-.176.023-.36.023-.552 0-.917-.295-1.638-.927-2.27-.643-.673-1.346-.975-2.242-.975-.873 0-1.566.302-2.183.95-.659.657-.953 1.378-.953 2.295 0 .191.008.375.024.55zm-23.805 0c.116.646.412 1.196.901 1.68.646.677 1.339.979 2.211.979.896 0 1.6-.302 2.217-.95l.028-.029c.49-.484.785-1.034.902-1.68.015-.175.023-.36.023-.55 0-.917-.295-1.638-.927-2.27-.643-.673-1.347-.974-2.243-.974-.872 0-1.565.302-2.183.95-.657.657-.952 1.377-.952 2.295 0 .19.008.374.023.55zm3.112-6.615c1.643 0 3.052.606 4.19 1.801 1.057 1.054 1.643 2.367 1.725 3.89.06-.009.12-.013.182-.013h11.678c.05 0 .1.003.148.008a5.818 5.818 0 0 1 1.75-3.91c1.113-1.17 2.511-1.776 4.13-1.776 1.644 0 3.054.606 4.191 1.802 1.055 1.052 1.64 2.363 1.724 3.881a1.23 1.23 0 0 1 .114-.005h3.76c.479-2.846.267-4.999-.633-6.41-.695-1.09-1.829-1.782-3.464-2.116l-7.584-1.37a1.364 1.364 0 0 1-.678-.336l-6.05-5.53h-17.45l-5.38 5.801c-.16.172-.36.3-.58.373l-4.415 1.448v8.14H9.44l.079.001a5.817 5.817 0 0 1 1.75-3.904c1.112-1.169 2.511-1.775 4.13-1.775z"/><path d="M0-13h52v40H0z"/></g></svg>