<svg xmlns="http://www.w3.org/2000/svg" width="44" height="40" viewBox="0 0 44 40"><path fill="#D71920" fill-rule="nonzero" d="M14.634.48c-3.898 0-7.431.766-10.076 2.089C1.913 3.89 0 5.864 0 8.3v23.415c0 2.414 1.892 4.377 4.543 5.701 2.65 1.325 6.189 2.104 10.091 2.104 3.28 0 6.298-.56 8.75-1.525a14.058 14.058 0 0 0 6.372 1.525c7.801 0 14.146-6.345 14.146-14.147 0-7.8-6.345-14.146-14.146-14.146-.168 0-.337.01-.503.015V8.3c0-2.436-1.898-4.41-4.543-5.732C22.066 1.246 18.532.48 14.634.48zm0 1.967c3.646 0 6.94.756 9.238 1.905 2.299 1.15 3.46 2.613 3.46 3.948-.453 2.072-1.971 3.212-3.46 3.933-2.299 1.15-5.592 1.906-9.238 1.906-3.645 0-6.939-.756-9.238-1.906-1.703-.882-3.253-2.227-3.46-3.933 0-1.335 1.162-2.798 3.46-3.948 2.3-1.15 5.593-1.905 9.238-1.905zM1.951 12.264c.723.666 1.615 1.257 2.607 1.753 2.645 1.322 6.178 2.088 10.076 2.088 1.69 0 3.307-.155 4.817-.427a14.194 14.194 0 0 0-2.744 4.223c-.674.059-1.365.107-2.073.107-3.64 0-6.928-.759-9.222-1.906-2.295-1.147-3.46-2.59-3.46-3.948v-1.89zm27.805.914a12.18 12.18 0 0 1 12.195 12.195A12.18 12.18 0 0 1 29.756 37.57a12.18 12.18 0 0 1-12.195-12.196 12.18 12.18 0 0 1 12.195-12.195zm-27.805 4.94c.718.66 1.605 1.244 2.592 1.737 2.649 1.325 6.188 2.104 10.091 2.104.477 0 .939-.022 1.403-.046a14.162 14.162 0 0 0-.427 3.46c0 .158.01.317.015.473-.327.013-.655.015-.99.015-3.64 0-6.93-.758-9.223-1.905-2.295-1.147-3.46-2.59-3.46-3.948v-1.89zm0 5.853c.718.66 1.605 1.245 2.592 1.738 2.649 1.324 6.188 2.103 10.091 2.103.4 0 .799-.011 1.19-.03a14.036 14.036 0 0 0 1.234 3.811 24.39 24.39 0 0 1-2.424.122c-3.64 0-6.928-.758-9.222-1.905-2.295-1.148-3.46-2.59-3.46-3.949v-1.89zm0 5.854c.718.66 1.605 1.244 2.592 1.737 2.649 1.325 6.188 2.104 10.091 2.104 1.215 0 2.395-.069 3.521-.213.858 1.228 1.9 2.299 3.095 3.201-1.924.566-4.19.915-6.616.915-3.639 0-6.927-.759-9.222-1.906-2.296-1.147-3.46-2.59-3.46-3.948v-1.89z"/></svg>