<svg data-v-498c4876="" width="32px" height="32px" viewBox="0 0 32 32" version="1.1" xmlns="http://www.w3.org/2000/svg" xmlns:xlink="http://www.w3.org/1999/xlink" focusable="false" class="list-item-link-icon"><g data-v-498c4876="" id="Symbols" stroke="none" stroke-width="1" fill="none" fill-rule="evenodd"><g data-v-498c4876="" id="logo/googlekit"><g data-v-498c4876="" id="ic_google_36px"><path data-v-498c4876="" d="M16,13 L16,19.24 L24.72,19.24 C24.05,23 20.79,25.74 16,25.74 C10.72,25.74 6.43,21.27 6.43,15.99 C6.43,10.71 10.72,6.25 16,6.25 C18.38,6.25 20.51,7.07 22.19,8.67 L22.19,8.68 L26.7,4.17 C23.93,1.59 20.32,0 16,0 C7.16,0 0,7.16 0,16 C0,24.84 7.16,32 16,32 C25.24,32 31.36,25.5 31.36,16.36 C31.36,15.19 31.25,14.07 31.05,13 L16,13 Z" fill="#212529" fill-rule="nonzero" class="Fill-1"></path> <polygon data-v-498c4876="" id="Shape" points="0 0 32 0 32 32 0 32"></polygon></g></g></g></svg>