<svg data-v-498c4876="" width="18px" height="18px" viewBox="0 0 18 18" version="1.1" xmlns="http://www.w3.org/2000/svg" xmlns:xlink="http://www.w3.org/1999/xlink" focusable="false" class="list-item-link-icon"><g data-v-498c4876="" id="Mocks" stroke="none" stroke-width="1" fill="none" fill-rule="evenodd"><g data-v-498c4876="" id="Next18_LP-Add-to-Cal" transform="translate(-614.000000, -509.000000)"><g data-v-498c4876="" id="Group-29" transform="translate(589.000000, 390.000000)"><g data-v-498c4876="" id="Copy-LInk-Copy"><g data-v-498c4876="" id="Group-24" transform="translate(25.000000, 119.000000)"><path data-v-498c4876="" d="M2,0 C0.9,0 0,0.9 0,2 L0,16 C0,17.1 0.9,18 2,18 L16,18 C17.1,18 18,17.1 18,16 L18,2 C18,0.9 17.1,0 16,0 L2,0 Z" fill="#212529" class="Fill-1"></path> <path data-v-498c4876="" d="M11.9053,8.7051 C11.9053,7.4131 11.6533,6.4221 11.1483,5.7331 C10.6433,5.0451 9.9273,4.7011 9.0003,4.7011 C8.0943,4.7011 7.3873,5.0431 6.8763,5.7291 C6.3663,6.4151 6.1053,7.3861 6.0943,8.6411 L6.0943,9.3131 C6.0943,10.5951 6.3523,11.5861 6.8683,12.2851 C7.3843,12.9841 8.1003,13.3341 9.0163,13.3341 C9.9443,13.3341 10.6573,12.9921 11.1563,12.3091 C11.6563,11.6261 11.9053,10.6271 11.9053,9.3131 L11.9053,8.7051 Z M14.0003,9.3131 C14.0003,10.4561 13.7963,11.4591 13.3873,12.3211 C12.9793,13.1841 12.3953,13.8461 11.6363,14.3081 C10.8783,14.7691 10.0053,15.0001 9.0163,15.0001 C8.0393,15.0001 7.1693,14.7691 6.4053,14.3081 C5.6403,13.8461 5.0503,13.1871 4.6333,12.3331 C4.2173,11.4781 4.0053,10.4931 4.0003,9.3781 L4.0003,8.7211 C4.0003,7.5831 4.2083,6.5801 4.6253,5.7091 C5.0413,4.8391 5.6293,4.1731 6.3883,3.7111 C7.1473,3.2491 8.0173,3.0181 9.0003,3.0181 C9.9823,3.0181 10.8523,3.2471 11.6113,3.7031 C12.3703,4.1601 12.9573,4.8161 13.3713,5.6731 C13.7853,6.5301 13.9943,7.5281 14.0003,8.6651 L14.0003,9.3131 Z" id="Fill-3" fill="#FFF"></path></g></g></g></g></g></svg>