<svg xmlns="http://www.w3.org/2000/svg" width="24" height="24" viewBox="0 0 24 24"><g fill="none" fill-rule="evenodd"><path stroke="#FFF" stroke-linecap="round" stroke-linejoin="round" stroke-width="2" d="M10.125 0H2.25C1.007 0 0 .985 0 2.2v17.6C0 21.015 1.007 22 2.25 22h13.5c1.243 0 2.25-.985 2.25-2.2V7.7L10.125 0z" transform="translate(3 1)"/><path stroke="#FFF" stroke-linecap="round" stroke-linejoin="round" stroke-width="2" d="M9 0L9 7 17 7" transform="translate(3 1)"/><g fill="#FFF"><path d="M6.875 0c.659 0 1.218.212 1.616.617.877.886.834 2.74.085 3.629-.404.479-.977.721-1.7.721H4.72V0h2.154zm-.262 1.055h-.67v2.858h.858c.502 0 .845-.24 1.017-.711.133-.364.114-.92.027-1.28-.152-.634-.595-.867-1.232-.867zM2.249 0c.834 0 1.434.374 1.649 1.025.128.388.128.8 0 1.192-.212.654-.813 1.029-1.649 1.029H1.224v1.721H0V0h2.249zM1.96.988h-.736v1.27h.736c.317 0 .63-.037.777-.306.09-.166.09-.492 0-.659-.147-.268-.46-.305-.777-.305zM13.48 1.055L11.162 1.055 11.162 1.996 13.171 1.996 13.171 2.984 11.162 2.984 11.162 4.967 9.939 4.967 9.939 0 13.48 0z" transform="translate(3 1) translate(2.422 11.066)"/></g></g></svg>