<svg xmlns="http://www.w3.org/2000/svg" width="33" height="40" viewBox="0 0 33 40"><g fill="none" fill-rule="evenodd"><path fill="#D71920" fill-rule="nonzero" d="M16.087.157c-4.177 0-7.944.384-10.76 1.047-1.41.331-2.583.72-3.506 1.236-.462.258-.87.544-1.21.938C.271 3.77 0 4.328 0 4.94v23.478c0 .613.271 1.156.611 1.55.34.392.748.68 1.21.937.923.515 2.097.905 3.505 1.236.344.081.702.172 1.073.245l-3.152 4.891a1.308 1.308 0 1 0 2.201 1.413l1.02-1.576h19.239l1.019 1.576a1.308 1.308 0 1 0 2.2-1.413l-3.152-4.891c.372-.073.73-.164 1.074-.245 1.408-.331 2.582-.721 3.505-1.236.462-.258.87-.545 1.21-.938.34-.393.61-.936.61-1.549V4.94c0-.613-.27-1.17-.61-1.562-.34-.394-.748-.68-1.21-.938-.923-.515-2.097-.905-3.505-1.236C24.03.54 20.264.157 16.087.157zm-1.481 2.636c.058-.001.118.002.177 0v16.998L2.609 16.842V5.076c.057-.064.213-.2.489-.353.569-.318 1.562-.681 2.826-.979 2.211-.52 5.266-.87 8.682-.95zm2.785 0c3.487.074 6.61.422 8.859.951 1.264.298 2.257.661 2.826.979.276.154.431.29.49.353v11.766L17.39 19.791V2.793zM2.61 19.533l13.165 3.192c.206.051.42.051.625 0l13.166-3.193v8.737a1.968 1.968 0 0 1-.489.367c-.569.317-1.562.667-2.826.964-2.527.595-6.15.992-10.163.992-4.012 0-7.636-.397-10.163-.992-1.264-.297-2.257-.647-2.826-.964a1.968 1.968 0 0 1-.49-.367v-8.737zm4.348 4.103a1.74 1.74 0 1 0 0 3.478 1.74 1.74 0 0 0 0-3.478zm18.26 0a1.74 1.74 0 1 0 0 3.478 1.74 1.74 0 0 0 0-3.478zM9.226 32.82c2.072.25 4.39.38 6.861.38 2.47 0 4.79-.13 6.861-.38l1.087 1.684H8.14l1.087-1.684z"/><path d="M-3 0h40v40H-3z"/></g></svg>