<svg xmlns="http://www.w3.org/2000/svg" width="51" height="39" viewBox="0 0 51 39"><path fill="#D71920" fill-rule="nonzero" d="M9.362 38.007h31.802c5.163 0 9.362-4.2 9.362-9.363 0-3.155-1.57-5.95-3.968-7.646a12.068 12.068 0 0 0 3.969-8.933c0-6.656-5.416-12.072-12.074-12.072-5.794 0-10.674 4.147-11.813 9.628a11.128 11.128 0 0 0-7.173-2.638c-6.152 0-11.157 5.005-11.157 11.157 0 .394.022.793.066 1.194-4.7.494-8.377 4.481-8.377 9.31 0 5.163 4.2 9.363 9.363 9.363zM38.453 2.098c5.497 0 9.969 4.471 9.969 9.967 0 3.08-1.43 5.98-3.852 7.865-.024-.01-.049-.016-.073-.025a9.324 9.324 0 0 0-1.748-.479c-.118-.02-.236-.044-.356-.06a9.24 9.24 0 0 0-.843-.076c-.17-.474-.382-.926-.611-1.365-2.224-4.253-7.088-6.807-12.07-5.793-.058-.09-.128-.168-.187-.256-.06-.086-.116-.17-.181-.258.236-5.28 4.63-9.52 9.952-9.52zM9.421 21.391h.007l.157.008c.33.02.632-.134.839-.383.206-.25.285-.581.215-.898a9.081 9.081 0 0 1-.224-1.978c0-4.991 4.06-9.052 9.052-9.052a9.04 9.04 0 0 1 7.132 3.5l.008.016c.131.168.239.323.347.478.16.235.319.47.457.721.006.012.015.024.022.036.234.431.735.643 1.205.512 4.925-1.367 9.834 1.618 11.132 6.285.132.472.547.793 1.062.77l.162-.01c.14-.01.282.002.424.004a7.22 7.22 0 0 1 1.642.247c.115.033.231.06.345.099.058.019.114.042.171.063.224.081.446.17.663.272 2.466 1.16 4.182 3.662 4.182 6.563 0 4.002-3.256 7.258-7.257 7.258H9.362c-4.002 0-7.257-3.256-7.257-7.258 0-3.999 3.251-7.253 7.316-7.253z"/></svg>