<svg xmlns="http://www.w3.org/2000/svg" width="235" height="89" viewBox="0 0 235 89"><g fill="#000" fill-rule="evenodd"><path d="M44.935 65.7c-1.822-1.533-2.79-3.777-2.902-6.733-.022-.6-.033-1.578-.033-2.933 0-1.378.011-2.378.033-3 .112-2.89 1.09-5.117 2.936-6.684 1.845-1.567 4.345-2.35 7.497-2.35 1.99 0 3.774.322 5.351.967s2.824 1.578 3.74 2.8c.917 1.223 1.398 2.667 1.443 4.333 0 .2-.073.367-.218.5a.745.745 0 0 1-.52.2h-4.763c-.314 0-.543-.06-.688-.183-.146-.122-.275-.35-.387-.683-.313-1.09-.787-1.85-1.425-2.284-.637-.433-1.481-.65-2.533-.65-2.527 0-3.836 1.4-3.924 4.2-.023.6-.034 1.522-.034 2.767 0 1.245.011 2.189.034 2.833.088 2.8 1.397 4.2 3.924 4.2 1.03 0 1.874-.222 2.533-.667.66-.444 1.135-1.2 1.425-2.266.09-.334.214-.561.37-.683s.391-.184.705-.184h4.763c.202 0 .374.067.52.2a.65.65 0 0 1 .218.5c-.045 1.667-.526 3.112-1.442 4.334-.917 1.222-2.164 2.156-3.74 2.8-1.578.644-3.362.966-5.352.966-3.198 0-5.708-.766-7.53-2.3M68.233 68.743a.867.867 0 0 1-.233-.6V45.857a.85.85 0 0 1 .233-.617.737.737 0 0 1 .544-.24h4.446c.227 0 .414.08.56.24.144.16.217.366.217.617v22.286a.901.901 0 0 1-.218.6.7.7 0 0 1-.56.257h-4.445a.714.714 0 0 1-.544-.257M83.966 59.777h6.068L87 51.034l-3.034 8.743zm-8.745 9A.687.687 0 0 1 75 68.28c0-.137.01-.24.034-.308l7.943-21.977c.227-.663.682-.995 1.364-.995h5.318c.682 0 1.136.332 1.364.995l7.943 21.977c.022.068.034.171.034.308a.69.69 0 0 1-.221.497.682.682 0 0 1-.494.223h-4.433c-.545 0-.932-.251-1.158-.754l-1.228-3.326h-8.932l-1.228 3.326c-.227.503-.613.754-1.16.754h-4.43a.679.679 0 0 1-.495-.223zM112.733 64.372c.867 0 1.539-.258 2.017-.772s.717-1.148.717-1.903c0-.777-.245-1.423-.733-1.937-.49-.514-1.156-.771-2-.771h-4.467v5.383h4.466zm-.3-9.875c.822 0 1.455-.228 1.9-.685.444-.457.667-1.051.667-1.783 0-.708-.217-1.286-.65-1.732-.433-.445-1.072-.668-1.916-.668h-4.167v4.868h4.167zM102.25 68.743a.835.835 0 0 1-.25-.6V45.891a.91.91 0 0 1 .234-.634.773.773 0 0 1 .6-.257h10.3c2.822 0 4.921.595 6.3 1.783 1.376 1.189 2.066 2.88 2.066 5.074 0 1.097-.283 2.047-.85 2.846-.566.8-1.195 1.383-1.883 1.748.911.412 1.677 1.092 2.3 2.041.621.948.933 2.017.933 3.205 0 2.309-.74 4.103-2.217 5.383-1.478 1.28-3.595 1.92-6.35 1.92h-10.6a.789.789 0 0 1-.583-.257zM129.159 63.86a.436.436 0 0 1-.159-.34V50.5c0-.146.048-.266.147-.36a.557.557 0 0 1 .398-.14h9.887c.167 0 .303.047.41.14a.459.459 0 0 1 .158.36v1.44a.437.437 0 0 1-.159.34.596.596 0 0 1-.41.14h-7.273v3.76h6.82a.6.6 0 0 1 .41.14.438.438 0 0 1 .158.34v1.44a.436.436 0 0 1-.159.34.598.598 0 0 1-.41.14h-6.819v4.94a.436.436 0 0 1-.158.34.596.596 0 0 1-.409.14h-2.046a.564.564 0 0 1-.386-.14M141.154 63.86a.441.441 0 0 1-.154-.34V50.5a.48.48 0 0 1 .143-.36.532.532 0 0 1 .387-.14h9.742a.57.57 0 0 1 .397.14.465.465 0 0 1 .154.36v1.34a.434.434 0 0 1-.154.35.596.596 0 0 1-.397.13h-7.246v3.5h6.759c.162 0 .294.047.398.14a.463.463 0 0 1 .154.36v1.26a.433.433 0 0 1-.154.35.597.597 0 0 1-.398.13h-6.759v3.62h7.422c.162 0 .295.043.398.13a.435.435 0 0 1 .154.35v1.36a.434.434 0 0 1-.154.35.595.595 0 0 1-.398.13h-9.918a.54.54 0 0 1-.376-.14M158.99 61.86c.678 0 1.207-.19 1.585-.57.379-.38.568-.863.568-1.45 0-.586-.193-1.07-.578-1.45-.384-.38-.91-.57-1.575-.57h-3.23v4.04h3.23zm-.196-6.12c.665 0 1.177-.166 1.536-.5.359-.333.538-.78.538-1.34s-.176-.993-.528-1.3c-.352-.306-.867-.46-1.546-.46h-3.034v3.6h3.034zm-5.657 8.12a.468.468 0 0 1-.137-.34V50.5c0-.146.043-.266.128-.36a.438.438 0 0 1 .342-.14h5.676c1.527 0 2.669.344 3.425 1.03.757.687 1.136 1.624 1.136 2.81 0 .694-.167 1.283-.5 1.77-.332.487-.72.837-1.164 1.05.548.254 1.011.667 1.39 1.24.378.574.567 1.227.567 1.96 0 1.24-.41 2.24-1.232 3-.823.76-1.97 1.14-3.445 1.14h-5.853a.448.448 0 0 1-.333-.14zM172.5 56.44c.786 0 1.375-.176 1.768-.53.393-.353.59-.87.59-1.55s-.197-1.203-.59-1.57c-.393-.366-.982-.55-1.768-.55h-2.73v4.2h2.73zm-5.363 7.42a.468.468 0 0 1-.137-.34V50.5c0-.146.042-.266.128-.36.085-.093.2-.14.343-.14h5.088c1.61 0 2.871.38 3.781 1.14.911.76 1.366 1.84 1.366 3.24 0 .974-.23 1.79-.688 2.45-.459.66-1.1 1.137-1.925 1.43l2.849 5.1c.039.08.058.154.058.22 0 .12-.042.22-.128.3a.405.405 0 0 1-.284.12h-1.808c-.209 0-.373-.05-.49-.15-.118-.1-.223-.23-.315-.39l-2.514-4.74h-2.691v4.8a.474.474 0 0 1-.491.48h-1.808a.45.45 0 0 1-.334-.14zM183.625 58.88h4.75L186 52.72l-2.375 6.16zm-4.498 5a.396.396 0 0 1-.127-.3l.042-.18 5.045-12.9c.14-.333.392-.5.757-.5h2.313c.364 0 .616.167.756.5l5.045 12.9.042.18c0 .12-.045.22-.137.3a.452.452 0 0 1-.304.12h-1.871c-.295 0-.498-.126-.61-.38l-.967-2.42h-6.222l-.967 2.42c-.112.254-.316.38-.61.38h-1.87a.437.437 0 0 1-.315-.12zM201.99 61.86c.678 0 1.207-.19 1.585-.57.378-.38.567-.863.567-1.45 0-.586-.192-1.07-.577-1.45-.385-.38-.91-.57-1.576-.57h-3.229v4.04h3.23zm-.196-6.12c.665 0 1.177-.166 1.536-.5.359-.333.538-.78.538-1.34s-.176-.993-.528-1.3c-.353-.306-.868-.46-1.546-.46h-3.034v3.6h3.034zm-5.657 8.12a.47.47 0 0 1-.137-.34V50.5c0-.146.042-.266.127-.36.085-.093.2-.14.343-.14h5.676c1.527 0 2.669.344 3.425 1.03.757.687 1.136 1.624 1.136 2.81 0 .694-.167 1.283-.5 1.77-.332.487-.72.837-1.164 1.05.547.254 1.01.667 1.39 1.24.378.574.567 1.227.567 1.96 0 1.24-.411 2.24-1.233 3-.822.76-1.97 1.14-3.445 1.14h-5.852a.448.448 0 0 1-.333-.14zM212.625 58.88h4.75L215 52.72l-2.375 6.16zm-4.498 5a.398.398 0 0 1-.127-.3l.042-.18 5.045-12.9c.14-.333.392-.5.757-.5h2.312c.364 0 .616.167.757.5l5.045 12.9.042.18c0 .12-.046.22-.137.3a.45.45 0 0 1-.305.12h-1.87c-.295 0-.498-.126-.61-.38l-.967-2.42h-6.222l-.967 2.42c-.113.254-.315.38-.61.38h-1.87a.438.438 0 0 1-.315-.12zM224.14 63.86a.463.463 0 0 1-.14-.34V50.5c0-.146.042-.266.129-.36a.454.454 0 0 1 .35-.14h1.554c.251 0 .444.114.577.34l5.7 8.88V50.5c0-.146.042-.266.129-.36a.454.454 0 0 1 .35-.14h1.713c.145 0 .266.047.359.14a.49.49 0 0 1 .139.36v13a.49.49 0 0 1-.14.36.46.46 0 0 1-.338.14h-1.574a.648.648 0 0 1-.598-.34l-5.68-8.68v8.54a.48.48 0 0 1-.13.34.451.451 0 0 1-.348.14h-1.714a.46.46 0 0 1-.339-.14"/><path d="M45.927 25.916c-.016.002-.032.002-.05.002-.419.016-.72.188-.913.496a.512.512 0 0 0 .079.657l7.131 6.741s.122.11.345.101c.021 0 .045-.002.07-.006 1.537-.22 10.913-1.605 10.927-1.61a.208.208 0 0 0 .047-.365c-5.631-3.896-11.857-5.978-17.636-6.016zM67.7 12.858c-.878-4.601-2.78-7.017-6.605-9.09C56.067 1.043 50.23-.2 44.149.026c-9.566.355-19.727 4.342-28.233 11.885C2.005 24.246-3.196 42.29 1.939 56.223c1.517 4.12 3.65 6.328 8.03 7.825 2.228.756 4.682 1.03 7.287.933 3.323-.122 6.895-.864 10.552-1.96-3.093-6.283-4.386-13.07-3.653-19.15-2.921 1.12-5.774 1.773-8.376 1.87-4.014.15-7.439-.97-9.624-3.504-5.652-6.552-1.12-19.943 10.12-29.909 6.868-6.09 14.646-9.493 20.95-9.725 4.017-.15 7.434.99 9.634 3.537 3.62 4.197 3.056 11.2-.766 18.31 6.119.099 12.535 2.293 18.225 6.207 2.774-6.294 4.387-12.48 3.38-17.8zM47.716 14.89c.312-3.153-.331-5.873-1.976-7.78-1.733-2.007-4.473-3.058-7.922-3.038-.178.002-.357.006-.538.013-6.19.228-13.676 3.724-20.024 9.354-10.44 9.255-15.01 22-9.982 27.83 2.004 2.322 4.998 2.923 7.347 2.99 1.095-6.283 5.413-13.595 12.245-19.653 6.83-6.058 14.563-9.45 20.85-9.716zM26.883 43.176a.497.497 0 0 0-.633-.166c-.34.158-.551.453-.615.9-.733 5.813.472 12.344 3.532 18.523a.2.2 0 0 0 .27.092.193.193 0 0 0 .092-.09c.008-.014 2.611-9.25 3.03-10.767.07-.261-.04-.428-.04-.428l-5.636-8.064zM130.158 88.831a.635.635 0 0 1-.158-.45v-.423c0-.376.22-.77.659-1.184l6.83-7.295c.968-.958 1.619-1.765 1.952-2.423.334-.657.502-1.436.502-2.338 0-1.258-.34-2.244-1.016-2.958-.677-.713-1.64-1.07-2.888-1.07-1.178 0-2.119.366-2.822 1.099-.703.732-1.125 1.718-1.266 2.957-.018.207-.092.366-.224.48-.132.112-.26.168-.382.168h-.528c-.176 0-.312-.051-.409-.155a.535.535 0 0 1-.145-.38c.035-.92.264-1.83.686-2.732.422-.902 1.064-1.648 1.925-2.24.862-.591 1.917-.887 3.165-.887 1.882 0 3.28.545 4.194 1.634.914 1.09 1.371 2.45 1.371 4.084 0 1.127-.228 2.14-.685 3.042-.458.902-1.187 1.85-2.19 2.846l-6.171 6.704h8.835c.193 0 .343.056.449.169.105.112.158.272.158.479v.422a.604.604 0 0 1-.172.451.593.593 0 0 1-.435.169H130.58a.55.55 0 0 1-.422-.169M154.79 85.736c.862-1.064 1.312-2.579 1.35-4.542.02-.537.03-1.277.03-2.222 0-.945-.01-1.666-.03-2.166-.038-1.926-.488-3.431-1.35-4.515-.861-1.083-2.125-1.624-3.79-1.624-1.666 0-2.929.541-3.79 1.624-.862 1.084-1.312 2.589-1.35 4.515l-.03 2.166.03 2.222c.038 1.963.488 3.478 1.35 4.542.861 1.065 2.124 1.597 3.79 1.597 1.665 0 2.929-.532 3.79-1.597zm-9.062 1.153c-1.074-1.407-1.64-3.26-1.699-5.556L144 79.028l.03-2.361c.057-2.296.624-4.149 1.698-5.556C146.803 69.704 148.56 69 151 69c2.44 0 4.198.704 5.272 2.11 1.075 1.408 1.641 3.26 1.7 5.557.018.518.028 1.305.028 2.36 0 1.038-.01 1.806-.029 2.306-.058 2.297-.624 4.149-1.699 5.556C155.198 88.296 153.44 89 151 89c-2.44 0-4.197-.704-5.272-2.11zM160.158 88.831a.633.633 0 0 1-.158-.45v-.423c0-.376.22-.77.66-1.184l6.83-7.295c.967-.958 1.618-1.765 1.952-2.423.334-.657.501-1.436.501-2.338 0-1.258-.339-2.244-1.016-2.958-.676-.713-1.639-1.07-2.887-1.07-1.179 0-2.12.366-2.823 1.099-.703.732-1.125 1.718-1.266 2.957a.676.676 0 0 1-.223.48c-.132.112-.26.168-.383.168h-.528c-.175 0-.312-.051-.408-.155a.535.535 0 0 1-.145-.38c.035-.92.263-1.83.685-2.732.422-.902 1.064-1.648 1.926-2.24.861-.591 1.916-.887 3.165-.887 1.88 0 3.279.545 4.193 1.634.914 1.09 1.371 2.45 1.371 4.084 0 1.127-.228 2.14-.685 3.042-.458.902-1.187 1.85-2.189 2.846l-6.172 6.704h8.836c.193 0 .343.056.448.169.105.112.158.272.158.479v.422a.605.605 0 0 1-.171.451.596.596 0 0 1-.435.169H160.58a.55.55 0 0 1-.422-.169M183.79 85.736c.861-1.064 1.312-2.579 1.35-4.542a67.36 67.36 0 0 0 .03-2.222c0-.945-.01-1.666-.03-2.166-.038-1.926-.489-3.431-1.35-4.515-.862-1.083-2.125-1.624-3.79-1.624-1.666 0-2.93.541-3.791 1.624-.862 1.084-1.312 2.589-1.35 4.515l-.03 2.166.03 2.222c.038 1.963.488 3.478 1.35 4.542.862 1.065 2.125 1.597 3.79 1.597 1.666 0 2.929-.532 3.79-1.597zm-9.062 1.153c-1.075-1.407-1.641-3.26-1.7-5.556L173 79.028l.029-2.361c.058-2.296.624-4.149 1.699-5.556C175.802 69.704 177.56 69 180 69c2.44 0 4.197.704 5.271 2.11 1.075 1.408 1.641 3.26 1.7 5.557.019.518.029 1.305.029 2.36 0 1.038-.01 1.806-.03 2.306-.058 2.297-.624 4.149-1.699 5.556C184.197 88.296 182.44 89 180 89c-2.44 0-4.198-.704-5.272-2.11z"/></g></svg>