<svg xmlns="http://www.w3.org/2000/svg" width="564" height="372" viewBox="0 0 564 372"><g fill="none" fill-rule="evenodd"><path fill="#FF585D" d="M0 0l321 186L0 372z"/><path fill="#00A9CE" d="M322 186l80 47-80 47z"/><path fill="#FEDD00" d="M402 45l162 94-162 94z"/><g fill="#000"><path d="M325.066 151.806c-.613-1.72-3.368-.979-2.747.762.678 1.891 1.391 3.861 1 5.898-.344 1.788-1.303 3.293-2.692 4.442-1.418 1.167.61 3.183 2.015 2.023 1.732-1.432 2.98-3.49 3.424-5.706.517-2.584-.13-4.989-1-7.419M318.18 166.337c.126-1.838-2.722-1.83-2.85 0-.288 4.217 1.408 8.259 3.834 11.62 1.068 1.475 3.54.05 2.461-1.444-2.16-2.99-3.704-6.412-3.445-10.176M308.753 157.85c-.82.216-1.104.998-.994 1.761.484 3.372.426 7.213-1.906 9.936-1.19 1.386.815 3.42 2.014 2.022 3.077-3.589 3.281-8.233 2.64-12.72-.112-.769-1.078-1.178-1.754-.998M326.456 164.693c.569 3.048-.442 6.223-2.583 8.442-1.279 1.32.735 3.345 2.013 2.022 2.886-2.991 4.076-7.15 3.317-11.227-.337-1.808-3.083-1.043-2.747.763M334.97 160.209c-2.616-1.88-3.876-5.103-3.54-8.269.082-.772-.715-1.422-1.425-1.429-.837-.01-1.343.664-1.423 1.43-.45 4.21 1.559 8.302 4.952 10.739 1.493 1.072 2.916-1.406 1.437-2.471M320.099 157.64c.01-.846-.663-1.34-1.424-1.427-3.486-.407-6.67-2.491-8.537-5.45-.978-1.552-3.444-.117-2.46 1.442 2.453 3.891 6.463 6.341 10.997 6.866.77.09 1.416-.72 1.424-1.43M351.505 143.066c1.827-.073 1.836-2.93 0-2.862-3.344.128-6.314-2.262-6.975-5.543-.362-1.804-3.109-1.042-2.746.758.898 4.473 5.192 7.82 9.72 7.647M306.176 176.021c-1.96-1.1-3.816-2.499-4.946-4.49-1.326-2.338-1.161-5.136-1.044-7.728.082-1.84-2.769-1.835-2.85 0-.14 3.127-.158 6.366 1.433 9.17 1.364 2.403 3.597 4.19 5.97 5.518 1.601.9 3.04-1.572 1.437-2.47M341.84 149.32c.274-3.582-1.006-7.08-3.41-9.717-1.241-1.362-3.251.667-2.015 2.021 1.924 2.11 2.793 4.862 2.575 7.695-.141 1.837 2.71 1.83 2.85 0M352.258 123.836c.869 3.28 2.183 8.308-1.266 10.638-1.512 1.021-.088 3.501 1.438 2.468 4.714-3.181 3.836-9.111 2.575-13.867-.471-1.777-3.22-1.023-2.747.761M298.008 178.979c-2.321-.093-5.06-1.604-6.764-3.136-1.861-1.672-2.969-3.94-2.643-6.474.099-.773-.727-1.423-1.426-1.432-.85-.007-1.324.668-1.424 1.432-.412 3.201 1.132 6.387 3.478 8.496 2.287 2.056 5.67 3.852 8.78 3.974 1.833.071 1.83-2.79 0-2.86M347.355 157.869c-3.638-.32-7.763-1.177-9.868-4.496-.982-1.547-3.449-.115-2.46 1.445 2.7 4.259 7.612 5.5 12.328 5.91 1.825.163 1.814-2.701 0-2.86M318.525 144.851a19.189 19.189 0 0 0 12.253.28c1.744-.541.999-3.303-.76-2.757-3.556 1.107-7.24.997-10.738-.28-1.724-.632-2.469 2.13-.755 2.757M294.766 185.369c-1.582-.77-3.218-1.046-4.533-2.308-1.166-1.117-2.027-2.492-2.875-3.856-.97-1.56-3.436-.126-2.461 1.44.972 1.565 1.986 3.157 3.321 4.441.635.608 1.355 1.17 2.134 1.582.953.5 2.017.704 2.977 1.174 1.643.801 3.088-1.665 1.437-2.473M295.308 163.836c1.374-1.224-.646-3.243-2.013-2.024-2.913 2.603-7.003 2.518-10.541 1.49-1.763-.516-2.518 2.244-.76 2.757 4.58 1.332 9.62 1.077 13.314-2.223M318.037 139.84c1.385-2.332 2.596-4.908 2.227-7.697-.35-2.635-2.157-4.453-4.15-6.026-.615-.485-1.43-.59-2.031 0-.502.493-.609 1.558 0 2.038 1.425 1.124 3.084 2.41 3.355 4.34.3 2.118-.844 4.146-1.882 5.89-.947 1.6 1.534 3.051 2.48 1.456M312.505 142.896c-5.456.23-10.53 3.288-13.23 8.069-.914 1.619 1.567 3.071 2.479 1.452 2.195-3.88 6.295-6.45 10.75-6.637 1.843-.08 1.852-2.964 0-2.884M282.522 192.198c1.798-.347 1.036-3.106-.758-2.759-1.842.357-3.654.024-5.352-.744-1.398-.63-3.066-1.685-3.272-3.374-.092-.77-.587-1.422-1.423-1.428-.7-.009-1.517.664-1.424 1.428.666 5.518 7.447 7.803 12.23 6.877M312.228 133.842c-4.426 1.097-8.232 3.755-10.906 7.444-1.09 1.502 1.401 2.943 2.48 1.454 2.23-3.076 5.525-5.21 9.188-6.118 1.794-.443 1.036-3.225-.762-2.78M304.672 155.907c-3.782-.036-7.388-1.162-10.545-3.246-1.538-1.016-2.966 1.459-1.439 2.468a22.12 22.12 0 0 0 11.984 3.64c1.835.014 1.835-2.846 0-2.862M284.193 136.635c-.67-.19-1.64.239-1.754 1.002-.567 3.829-3.21 6.614-5.79 9.284-1.278 1.322.735 3.346 2.014 2.023 2.892-2.99 5.888-6.26 6.525-10.547.115-.769-.194-1.528-.995-1.762M289.214 146.644c.46-.622.097-1.59-.511-1.954-.722-.436-1.493-.107-1.949.51-1.483 2.01-1.75 4.648-1.898 7.073-.162 2.636.415 5.2 1.737 7.488.92 1.591 3.384.153 2.46-1.444-1.085-1.88-1.48-3.886-1.348-6.044.119-1.958.313-4.011 1.509-5.629M263.828 76.067c.092-.773-.716-1.423-1.422-1.431-.845-.009-1.336.666-1.424 1.43-.528 4.52-3.903 8.105-8.255 9.16-1.784.43-1.03 3.188.753 2.755 5.687-1.376 9.676-6.139 10.348-11.914M268.62 86.906c-.28.724.353 1.555 1.032 1.737.82.216 1.453-.322 1.73-1.037 1.42-3.673-.03-7.456-1.692-10.765-.827-1.646-3.27-.172-2.447 1.466 1.35 2.687 2.527 5.626 1.377 8.6M265.464 100.998c-.509.502-.603 1.554 0 2.04 3.478 2.8 7.903 3.767 12.291 3.344 1.823-.173 1.842-3.06 0-2.883-3.562.343-7.391-.188-10.26-2.5-.61-.49-1.434-.588-2.03 0M262.353 118.334c1.802-.407 1.042-3.186-.763-2.781-5.05 1.13-10.533 1.239-14.831-2.048-.623-.476-1.601-.093-1.966.516-.44.733-.097 1.503.516 1.972 4.89 3.739 11.315 3.622 17.044 2.34M328.694 119.612c-.917 1.616 1.563 3.07 2.479 1.455 3.05-5.378 2.417-12.171-1.392-16.99-.486-.612-1.521-.498-2.03 0-.607.597-.48 1.433 0 2.04 2.99 3.782 3.3 9.334.943 13.495M261.606 109.046c2.075-4.608 1.434-9.845-1.653-13.829-.48-.619-1.525-.496-2.03 0-.61.6-.473 1.425 0 2.038 2.218 2.863 2.69 7.037 1.203 10.338-.756 1.675 1.718 3.143 2.48 1.453M247.2 184.677c-1.243-1.356-3.254.67-2.012 2.022 1.387 1.512 2.17 3.817 2.545 5.812.435 2.289-.234 4.655-.69 6.89-.37 1.793 2.375 2.565 2.745.758.568-2.777 1.25-5.575.695-8.41-.492-2.502-1.548-5.185-3.282-7.072M300.793 112.261c-1.806-.344-2.58 2.435-.764 2.78 6.048 1.152 9.094-6.629 7.11-11.371-.3-.724-.945-1.223-1.765-1.009-.676.181-1.302 1.06-1.004 1.775.68 1.626.779 3.4.097 5.052-.57 1.377-2.006 3.093-3.674 2.773M256.57 75.35c1.952-2.963 2.816-6.576 2.36-10.103-.101-.77-.583-1.42-1.425-1.433-.694-.006-1.524.666-1.425 1.433.399 3.084-.26 6.061-1.968 8.659-1.014 1.54 1.451 2.973 2.458 1.444M247.338 91.683c2.958 2.878 4.466 6.866 4.273 10.986-.088 1.845 2.763 1.756 2.85-.073.229-4.865-1.714-9.634-5.19-13.015-1.313-1.281-3.253.815-1.933 2.102M324.312 135.424c.67.192 1.64-.233 1.753-1 .56-3.819 3.866-5.99 6.865-7.916 1.538-.99.11-3.467-1.44-2.47-3.577 2.3-7.501 5.08-8.174 9.627-.113.77.194 1.527.996 1.759M367.755 128.04a19.26 19.26 0 0 1-1.774 13.593c-.873 1.618 1.585 3.064 2.46 1.443a22.326 22.326 0 0 0 2.061-15.8c-.427-1.789-3.176-1.03-2.747.764M347.271 150.326c-1.615-.869-3.058 1.6-1.438 2.47 1.781.955 3.626 1.932 5.05 3.4 1.564 1.609 2.033 3.806 2.702 5.88.563 1.745 3.314 1 2.747-.758-.798-2.475-1.43-4.962-3.226-6.925-1.609-1.764-3.76-2.95-5.835-4.067M375.057 133.463c-.702-.007-1.515.663-1.426 1.431.279 2.387.636 4.802.449 7.212-.172 2.242-.92 4.394-2.043 6.329-.929 1.593 1.533 3.033 2.457 1.444a18.212 18.212 0 0 0 2.362-7.05c.316-2.649-.068-5.304-.376-7.935-.09-.774-.59-1.422-1.423-1.43M358.405 123.25a29.061 29.061 0 0 1 1.84 13.848c-.083.775.715 1.423 1.426 1.43.837.01 1.34-.666 1.424-1.43.54-4.943-.13-9.981-1.944-14.605-.664-1.693-3.418-.957-2.746.756M294.566 146.589c3.486-3.112 4.998-7.885 4.172-12.457-.327-1.807-3.071-1.043-2.747.762.648 3.59-.75 7.272-3.439 9.67-1.373 1.224.648 3.24 2.014 2.025M277.834 185.16c2.241-1.395 3.908-3.476 4.819-5.957 1.02-2.782.705-5.67-.205-8.436-.574-1.738-3.325-.993-2.748.763.728 2.212 1.06 4.375.307 6.625-.631 1.883-1.936 3.49-3.612 4.535-1.557.967-.127 3.442 1.439 2.47M292.512 136.023c-2.623-2.913-3.752-7.022-2.966-10.87.365-1.796-2.38-2.568-2.747-.762a15.689 15.689 0 0 0 3.697 13.657c1.232 1.367 3.242-.66 2.016-2.025M285.1 98.568c-1.062-1.501-3.554-.06-2.479 1.457 1.816 2.566 4.629 3.846 7.574 4.674 3.338.94 6.932 1.29 10.266.156 1.742-.591.995-3.375-.762-2.777-2.753.935-5.617.677-8.387-.062-2.253-.601-4.8-1.453-6.212-3.448M276.214 87.061c.662.192 1.65-.233 1.753-.997.475-3.517 1.966-6.74 4.427-9.297 1.273-1.326-.738-3.351-2.016-2.021-2.774 2.883-4.62 6.576-5.159 10.556-.105.773.186 1.526.995 1.759M273.487 99.853c.67.191 1.638-.239 1.751-1 .543-3.643 5.01-5.579 7.897-7.057 1.635-.838.195-3.306-1.437-2.474-3.56 1.826-8.546 4.316-9.206 8.77-.117.769.192 1.529.995 1.761M287.345 94.65c-.142 1.836 2.706 1.826 2.85 0 .383-4.888-1.216-9.67-4.287-13.454-1.157-1.428-3.162.607-2.014 2.023 2.602 3.207 3.772 7.33 3.451 11.43M266.89 123.707c1.74-1.995 2.52-4.514 2.531-7.146.007-1.33-.136-2.764-.635-4-.505-1.25-1.39-2.257-2.29-3.234-1.258-1.366-3.284.674-2.031 2.038.625.679 1.322 1.386 1.673 2.26.363.906.414 1.97.411 2.936-.005 1.832-.465 3.704-1.69 5.108-1.212 1.391.81 3.437 2.031 2.038M260.06 128.18c4.124 2 8.512 4.035 13.216 3.418.767-.1 1.414-.585 1.422-1.43.008-.696-.66-1.532-1.422-1.431-4.224.555-8.071-1.23-11.779-3.028-1.644-.8-3.09 1.67-1.438 2.47M283.82 196.419c-4.991-2.037-10.518-2.397-15.75-1.137-1.782.43-1.029 3.188.756 2.757 4.77-1.149 9.702-.714 14.236 1.136.719.295 1.56-.317 1.753-1 .231-.813-.286-1.467-.994-1.756M265.815 202.002c-2.44.64-4.378 2.258-5.871 4.25-1.525 2.034-2.957 4.559-3.712 6.998-.541 1.762 2.208 2.517 2.748.759.615-1.99 1.824-4.025 3.002-5.73 1.13-1.635 2.641-3.006 4.59-3.518 1.772-.464 1.022-3.224-.757-2.759"/><path d="M302.092 96.23c-1.806.38-1.043 3.161.763 2.78 5.103-1.072 9.656 3.064 9.43 8.2-.079 1.857 2.79 1.852 2.873 0 .14-3.279-1.233-6.637-3.776-8.742-2.607-2.16-5.994-2.93-9.29-2.239M309.974 116.002c2.147-1.465 4.745-1.648 7.252-1.21 2.135.372 5.088.848 6.562 2.603 1.193 1.422 3.215-.627 2.03-2.038-1.877-2.238-5.462-2.975-8.203-3.406-3.123-.496-6.405-.269-9.09 1.558-1.522 1.035-.086 3.538 1.449 2.493M259.727 91.242c1.662.144 3.612 1.191 5.027 2.044 1.633.98 2.507 2.396 3.359 4.06.84 1.638 3.297.194 2.46-1.442-1.076-2.103-2.33-3.855-4.382-5.09-1.886-1.134-4.263-2.242-6.464-2.43-1.827-.16-1.817 2.702 0 2.858M295.199 98.471c1.073-5.174 7.082-6.279 11.436-7.04 1.817-.317 1.048-3.098-.763-2.781-5.41.946-12.142 2.786-13.44 9.053-.378 1.812 2.39 2.585 2.767.768M275.99 169.313c3.249-3.919 3.845-8.947 3.572-13.882-.102-1.832-2.952-1.844-2.847 0 .225 4.082-.012 8.572-2.74 11.86-1.166 1.406.84 3.438 2.016 2.022M274.426 138.473c-1.38 1.216.641 3.233 2.013 2.024 3.758-3.317 5.736-8.502 5.073-13.49-.103-.77-.581-1.42-1.424-1.43-.69-.006-1.526.666-1.423 1.43.574 4.323-.974 8.581-4.239 11.466M271.868 123.148c-.465.63-.096 1.605.515 1.972.727.436 1.505.105 1.965-.517 2.484-3.36 6.668-5.087 10.776-4.744 1.84.151 1.831-2.73 0-2.885-5.18-.427-10.183 2.021-13.256 6.174M266.726 192.878c1.828.134 1.82-2.727 0-2.861-5.052-.38-9.865-2.535-13.547-6.024-1.331-1.263-3.349.756-2.013 2.023 4.255 4.031 9.733 6.426 15.56 6.862M259.71 199.036c.717-.3 1.21-.946.997-1.76-.179-.675-1.044-1.295-1.752-1-2.213.924-4.108 2.454-5.235 4.608-1.232 2.355-2.105 5.21-2.528 7.826-.124.77.199 1.532.996 1.76.678.194 1.628-.239 1.75-.999.362-2.227 1.084-4.475 1.963-6.551.727-1.717 2.078-3.161 3.81-3.884M293.12 117.108c-1.848.02-1.852 2.902 0 2.884 1.715-.02 3.87-.363 5.498.271 1.376.537 2.826 1.696 3.492 3.024.832 1.657 3.308.2 2.478-1.457-.897-1.789-2.737-3.252-4.533-4.071-2.146-.981-4.645-.675-6.935-.651M337.198 130.26c1.416-1.088 3.158-1.054 4.864-1.061 1.924-.012 3.803.042 5.626.726 1.718.648 2.46-2.115.757-2.758-2.153-.81-4.47-.849-6.742-.826-2.057.016-4.247.147-5.943 1.45-.614.474-.924 1.225-.51 1.955.344.61 1.34.982 1.948.514M335.3 133.192a18.673 18.673 0 0 1-7.918 4.37c-1.769.474-1.019 3.234.757 2.758a21.69 21.69 0 0 0 9.175-5.107c1.347-1.252-.672-3.27-2.014-2.02M338.733 118.335c-.102.774.184 1.524.996 1.757.661.194 1.65-.233 1.752-.996.55-4.11-.178-8.185-2.267-11.78-.925-1.591-3.388-.151-2.462 1.442 1.672 2.877 2.425 6.261 1.981 9.577M311.192 124.331a10.311 10.311 0 0 1 11.393.125c1.536 1.04 2.975-1.453 1.45-2.487-4.225-2.86-10.016-2.903-14.29-.127-1.548 1.004-.11 3.5 1.447 2.49M302.542 127.663c-1.678-.409-4.508-1.403-5.143-3.228-.603-1.742-3.377-.994-2.767.764.946 2.726 3.912 4.3 6.52 5.073 2.791.833 5.837.772 8.59-.184 1.737-.604.99-3.389-.762-2.781-2.084.723-4.287.88-6.438.356M293.75 110.638c-5.565-2.016-11.707-1.63-17.045.883-1.67.786-.216 3.275 1.45 2.492 4.656-2.197 10.017-2.34 14.833-.593 1.741.632 2.49-2.152.762-2.782M276.555 175.335c-4.334-.942-7.664-4.471-8.085-8.96-.17-1.816-3.022-1.835-2.85 0 .534 5.717 4.532 10.493 10.176 11.721 1.79.385 2.552-2.372.76-2.76M253.896 133.247c-.101.776.733 1.433 1.436 1.442.859.009 1.336-.673 1.436-1.442.348-2.695-.615-5.689-2.056-7.953-1.411-2.219-3.626-3.811-6.306-3.87-1.85-.042-1.85 2.842 0 2.883 3.945.087 5.915 5.652 5.49 8.94M259.256 137a18.898 18.898 0 0 1-10.675 1.48c-.767-.12-1.523.194-1.753.998-.193.678.237 1.642.995 1.76 4.427.69 8.79.094 12.87-1.77 1.666-.76.22-3.226-1.437-2.468M254.074 167.79c1.622 4.523 4.733 8.429 9.005 10.68 1.623.857 3.065-1.61 1.437-2.47-3.602-1.9-6.319-5.133-7.694-8.97-.617-1.72-3.37-.98-2.748.76"/><path d="M253.615 180.779c.982 1.097 2.018 2.151 3.397 2.726 1.48.613 3.255.763 4.843.718 3.042-.088 5.826-1.249 7.682-3.714.468-.622.09-1.594-.511-1.956-.726-.437-1.487-.103-1.95.513-1.292 1.716-3.558 2.304-5.6 2.299-1.098 0-2.36-.053-3.386-.489-1.008-.421-1.747-1.324-2.46-2.12-1.226-1.372-3.235.655-2.015 2.023M257.582 144.59c-.145 4.14 2.003 8.072 5.497 10.244 1.565.972 2.997-1.5 1.437-2.469-2.668-1.66-4.195-4.638-4.087-7.774.065-1.839-2.784-1.839-2.847 0M255.553 156.303a16.91 16.91 0 0 0 5.751 9.795c1.4 1.166 3.428-.847 2.014-2.025a14.425 14.425 0 0 1-5.017-8.53c-.342-1.806-3.09-1.04-2.748.76M270.918 162.004c1.203-2.257 1.174-4.905.807-7.379-.35-2.364-1.27-4.604-2.945-6.332-1.282-1.322-3.295.702-2.014 2.022 1.259 1.301 1.886 2.99 2.166 4.76.278 1.757.385 3.874-.475 5.485-.863 1.624 1.596 3.07 2.46 1.444M272.633 142.807c-3.024-1.469-5.007-4.49-5.033-7.882-.012-1.84-2.862-1.846-2.848 0 .029 4.33 2.542 8.456 6.444 10.354 1.641.798 3.087-1.669 1.437-2.472"/><path d="M243.865 224.919c.047.054.089.11.138.163.563.617 1.2 1.157 1.87 1.654l-2.008 1.165v-2.982zm146.56-84.68c-1.157-1.427-3.161.61-2.013 2.024.338.415.651.85.946 1.297l-2.524 1.462a1.39 1.39 0 0 0-1.1.074 16.934 16.934 0 0 0-4.399 3.114l-9.329 5.407a1.437 1.437 0 0 0-.738-.632c-4.165-1.639-7.12-5.517-7.891-9.894-.317-1.81-3.063-1.041-2.745.76.874 4.971 4.206 9.15 8.655 11.342l-5.424 3.145c.018-.177.004-.37-.06-.58-1.399-4.568-4.459-8.463-8.584-10.859-1.59-.926-3.026 1.546-1.439 2.47a15.99 15.99 0 0 1 7.277 9.15c.156.51.5.803.896.926l-11.543 6.692a64.369 64.369 0 0 1-.595-1.624c-.606-1.722-3.36-.982-2.747.759.273.772.566 1.539.874 2.296l-2.732 1.583a1.22 1.22 0 0 0-.671.39l-8.337 4.832a14.9 14.9 0 0 0 .964-1.149c1.525-2.033 2.96-4.56 3.71-7 .543-1.763-2.205-2.516-2.746-.762-.615 1.992-1.826 4.027-3.002 5.735-1.13 1.634-2.642 3.006-4.593 3.516-1.59.418-1.143 2.679.253 2.798l-3.293 1.91c-.542-.7-1.783-.94-2.437.036-2.11 3.147-6.523 2.914-9.83 2.783-1.834-.076-1.83 2.787 0 2.861.796.032 1.608.042 2.42.028l-6.839 3.964c-.305-2.06-.484-4.227-.254-6.27.248-2.193 1.673-3.944 3.03-5.58 1.167-1.406-.84-3.441-2.014-2.02-1.684 2.032-3.366 4.158-3.772 6.85-.422 2.795-.076 5.765.382 8.543l-3.24 1.88c-.37-.791-.774-1.565-1.266-2.275-.82-1.182-1.94-1.915-3.191-2.58-1.62-.856-3.061 1.611-1.437 2.474.898.475 1.77.935 2.338 1.809a17.43 17.43 0 0 1 1.084 2.004l-4.211 2.44c-.63-1.61-1.663-3.068-2.563-4.53-.96-1.563-3.425-.13-2.46 1.442.835 1.359 1.896 2.745 2.432 4.253.033.096.05.194.078.292l-2.868 1.664c-.772-2.386-2.102-4.585-3.972-6.371-1.33-1.267-3.347.752-2.014 2.023a12.928 12.928 0 0 1 3.483 5.798l-9.45 5.478c-.68-2.164-1.771-4.211-3.099-6.052-1.067-1.473-3.54-.048-2.461 1.445 1.347 1.865 2.44 3.902 3.018 6.08l-7.832 4.542a9.718 9.718 0 0 1 2.688-6.09c1.276-1.325-.736-3.35-2.015-2.023-2.54 2.627-3.762 6.165-3.503 9.753l-10.312 5.977c-1.14-1.319-2.552-2.403-4.219-3.114-.72-.305-1.53-.209-1.963.517-.36.602-.198 1.67.514 1.974a9.571 9.571 0 0 1 3.08 2.124l-6.214 3.603c-.856-.545-1.672-1.146-2.38-1.873-1.29-1.326-1.835-3.056-2.36-4.785v-9.913c.172.172.352.338.51.521 1.43 1.66 2.199 3.817 2.918 5.859.608 1.721 3.36.98 2.747-.763-.857-2.431-1.794-4.851-3.439-6.867-.772-.947-1.725-1.745-2.737-2.482v-24.155c.507.164 1.12.094 1.452-.33 1.567-2.009 3.45-3.988 4.462-6.355.942-2.206 1.139-4.561.704-6.908-.335-1.807-3.081-1.043-2.748.759.331 1.786.102 3.7-.7 5.335-.795 1.615-2.027 3.034-3.17 4.441v-8.17c1.147-2.58.882-5.627.163-8.299-.049-.182-.108-.36-.163-.539v-7.078a24.6 24.6 0 0 1 6.666 6.655c1.021 1.517 3.49.087 2.46-1.443a27.952 27.952 0 0 0-8.554-8.247 1.381 1.381 0 0 0-.572-.203v-4.746a18.114 18.114 0 0 1 6.84 4.541c1.264 1.337 3.275-.685 2.015-2.025a20.9 20.9 0 0 0-8.855-5.55v-5.757a15.308 15.308 0 0 0 4.67-4.267c1.067-1.496-1.197-3.231-2.266-1.735a12.418 12.418 0 0 1-2.404 2.513v-25.572c2.734 2.31 6.195 3.734 9.878 3.83 1.848.045 1.847-2.84 0-2.884-3.822-.098-7.488-2.005-9.878-4.964v-7.94c.84-.37 1.362-1.488.5-2.304-.16-.15-.333-.275-.5-.412v-5.973c.253-.048.505-.179.728-.444a25.304 25.304 0 0 1 7.878-6.271c1.634-.837.194-3.307-1.436-2.47a27.356 27.356 0 0 0-7.17 5.308v-7.099a13.447 13.447 0 0 1 5.812-3.224c1.772-.467 1.02-3.225-.759-2.76a16.16 16.16 0 0 0-5.053 2.338V68.43c1.778-1.697 3.166-3.748 3.82-6.292.46-1.777-2.252-2.658-2.712-.875-.249.97-.632 1.843-1.108 2.645V53.12c1.982.028 3.784.806 5.472 1.85.835.517 1.777 1.054 2.367 1.862.593.804.83 1.826 1.087 2.774.479 1.773 3.227 1.02 2.747-.763a20.966 20.966 0 0 0-.573-1.849l6.745 3.91c.412 1.552.63 3.157.612 4.772-.021 1.842 2.829 1.842 2.849 0 .01-.973-.06-1.93-.19-2.874l4.212 2.441a11.078 11.078 0 0 1-1.34 3.487c-.949 1.58 1.514 3.022 2.46 1.442a13.697 13.697 0 0 0 1.453-3.438l5.134 2.976c-1.578.683-3.02 1.685-4.226 3.099-1.184 1.39.82 3.422 2.016 2.022 1.505-1.766 3.444-2.74 5.542-3.189l10.052 5.827c-.13.234-.26.466-.398.695-.96 1.575 1.504 3.012 2.46 1.443.14-.234.272-.471.405-.708l2.135 1.238c-1.263 2.059-2.003 4.412-1.913 6.86.067 1.835 2.916 1.844 2.849 0-.072-1.971.52-3.82 1.526-5.432l15.654 9.074c.7 1.183 1.543 2.285 2.454 3.316.81.919 1.96.338 2.302-.56l2.99 1.734c-1.239 2.336-1.956 4.742-1.567 7.487.39 2.754 1.782 5.36 3.95 7.112.61.49 1.434.584 2.03 0 .508-.502.603-1.552 0-2.042-1.726-1.39-2.862-3.337-3.17-5.548-.287-2.055.32-3.838 1.242-5.568l1.964 1.138c.036.273.159.548.41.796 1.465 1.435 3.65 2.214 5.65 2.717l17.333 10.048c-.26.181-.456.434-.498.751-.466 3.45-1.799 6.709-4.024 9.398-1.162 1.407.843 3.44 2.016 2.021 2.534-3.06 4.22-6.702 4.754-10.66.009-.067.01-.132.014-.2l4.824 2.797c.16.256.41.466.778.575.128.037.258.066.386.1l9.523 5.522c.113.402.414.74.969.847.23.045.46.079.69.114l10.29 5.964c.405 4.165 1.733 8.19 4.485 11.443 1.188 1.403 3.195-.629 2.015-2.022-1.841-2.178-2.86-4.835-3.367-7.604l11.31 6.557a17.847 17.847 0 0 0 2.022 3.546l-2.989 1.733a20.971 20.971 0 0 0-1.362-1.91zM241 45.577v187.307l161.556-93.653L241 45.576z"/></g></g></svg>