<svg xmlns="http://www.w3.org/2000/svg" width="439" height="382" viewBox="0 0 439 382"><g fill="none" fill-rule="evenodd"><path fill="#00AF66" d="M0 338.253l292.41-168.846L0 .561zM72.143 382l73.679-42.212-73.679-42.211z"/><path fill="#5461C8" d="M292.41 339.021L439 254.388l-146.59-84.633z"/><g fill="#5461C8"><path d="M185.908 227.835l28.633-16.532-28.633-16.531v33.063zm-2.672-37.69l36.648 21.158-36.648 21.16v-42.318zM149.26 206.676l28.634-16.53-28.633-16.533v33.063zm-2.67-37.69l36.646 21.16-36.647 21.157v-42.317z"/><path d="M185.908 270.152l28.633-16.533-28.633-16.531v33.064zm-2.672 4.625v-42.315l36.648 21.157-36.648 21.158zM149.26 248.993l28.634-16.53-28.633-16.533v33.063zm-2.67 4.626v-42.316l36.646 21.16-36.647 21.156zM149.26 291.31l28.634-16.533-28.633-16.53v33.063zm-2.67-37.69l36.646 21.157-36.647 21.16V253.62z"/><path d="M149.26 333.627l28.634-16.532-28.633-16.531v33.063zm-2.67 4.626v-42.317l36.646 21.159-36.647 21.158zM259.202 270.148l28.634-16.532-28.634-16.531v33.063zm-2.671 4.627v-42.317l36.647 21.158-36.647 21.159zM222.555 248.99l28.633-16.532-28.633-16.532v33.063zm-2.671-37.69l36.647 21.158-36.647 21.158V211.3zM185.908 312.468l28.633-16.532-28.633-16.531v33.063zm-2.672 4.627v-42.318l36.648 21.16-36.648 21.158z"/><path d="M222.555 291.306l28.633-16.531-28.633-16.532v33.063zm-2.671-37.687v-.003l36.647 21.159-36.647 21.158v-42.314z"/></g></g></svg>