<svg xmlns="http://www.w3.org/2000/svg" xmlns:xlink="http://www.w3.org/1999/xlink" width="512" height="249" viewBox="0 0 512 249"><defs><path id="prefix__a" d="M0 0H513V249H0z"/></defs><g fill="none" fill-rule="evenodd"><mask id="prefix__b" fill="#fff"><use xlink:href="#prefix__a"/></mask><g mask="url(#prefix__b)"><g><path fill="#FF585D" d="M0 0L341 198.5 0 397z" transform="matrix(1 0 0 -1 0 445)"/><path fill="#00A9CE" d="M255 347L342 396 255 445z" transform="matrix(1 0 0 -1 0 445)"/><path fill="#001A72" d="M344.06 203.315L505.879 297 344.06 390.687V203.315zM341 198v198l171-99-171-99z" transform="matrix(1 0 0 -1 0 445)"/><path fill="#001A72" d="M304.066 289.03v-13.404l35.18 20.102-35.18-6.699zm0 10.668H342l-37.934 21.676v-21.676zm-53.96 35.492l44.675-8.51-74.454 42.542 29.778-34.032zm-43.054 23.779l5.204 14.865-36.419 20.81 31.215-35.675zM171 350.26l29.363-5.593L171 395v-44.74zm25.93-103.809l-25.93.001V202l25.93 44.451zm39.737-.002l-16.337-18.67 32.672 18.67h-16.335zm55.767 40.365l9.2-10.512v12.264l-9.2-1.752zm-9.167 10.477l7.33-8.377 11.036 2.103v6.274h-18.366zm-.002 2.407h18.368v20.99l-18.368-20.99zm-2.66.636l19.946 22.795-47.872 9.12 27.926-31.915zm-54.623 37.001l32.933-37.637h19.029l-29.126 33.286-22.836 4.351zm-2.573 2.94l22.835-4.35-31.917 36.476-5.436-15.533 14.518-16.592zm-19.054 3.631l15.193-2.895-11.576 13.23-3.617-10.335zm-1.887 1.965l3.665 10.472-29.325 33.514 25.66-43.986zm-11.123-31.777l9.791 27.974-29.374 5.596 19.583-33.57zm21.12-41.015L191.9 308.328l-20.814-59.468 27.248-.002 14.13 24.221zm-12.725-26.628l-22.933-39.31 34.4 39.31H199.74zm37.608 29.873L214.644 272l-13.5-23.142h12.17l24.034 27.466zm4.777-3.248l-1.761 3.017-23.833-27.236h11.464l14.13 24.219zM229.4 246.45l-8.1-13.886 12.15 13.886h-4.05zm18.575 16.597l-4.447 7.622-12.724-21.812h4.752l12.419 14.19zm1.286-2.206l-10.488-11.985 17.48-.001-6.992 11.986zm-1.247 17.514l-3.08-5.28 4.726-8.102 14.381 16.434-16.027-3.052zm-1.55 2.155l4.465 7.656-7.146-8.165 2.68.51zm-3.995-3.21l1.06-1.818 1.324 2.272-2.384-.455zm-39.445 62.805l-10.07-28.769 21.535-36.914 24.166 4.602-35.63 61.081zm37.738-59.881l15.988 18.271-34.628 39.575-16.991 3.237 35.631-61.083zm29.713 4.86l17.364 3.306-7.235 8.269-10.129-11.576zm7.467 12.207h-18.88l-9.44-16.177 16.992 3.235 11.328 12.942zM171 255.966l19.292 55.12L171 344.157v-88.191zm133.066 35.514l30.518 5.811h-30.518v-5.81zm-3.372-17.78l-11.016 12.589-21.776-4.146-16.956-19.377 7.653-13.12 42.095 24.053zm-87.31-49.89l13.208 22.64h-12.168l-38.586-44.093 37.546 21.454z" transform="matrix(1 0 0 -1 0 445)"/></g></g></g></svg>