<svg xmlns="http://www.w3.org/2000/svg" xmlns:xlink="http://www.w3.org/1999/xlink" width="384" height="332" viewBox="0 0 384 332"><defs><path id="a" d="M.05.091h128.91v146.805H.05z"/></defs><g fill="none" fill-rule="evenodd"><path fill="#00A9CE" d="M0 36l254 148L0 332z"/><path fill="#5461C8" d="M254 36l130 75-130 75z"/><path fill="#FF585D" d="M65 0l64 36-64 36z"/><path fill="#1A1919" d="M194.105 119.35c-.49-1.348-2.688-.766-2.193.598.542 1.482 1.11 3.026.799 4.623-.275 1.4-1.04 2.58-2.15 3.481-1.131.915.487 2.495 1.61 1.586 1.381-1.123 2.378-2.736 2.732-4.472.413-2.025-.104-3.91-.798-5.815M188.609 130.74c.1-1.44-2.173-1.435-2.276 0-.23 3.305 1.124 6.473 3.06 9.107.853 1.156 2.826.04 1.965-1.131-1.724-2.345-2.956-5.026-2.75-7.976M181.083 124.088c-.655.17-.88.782-.793 1.38.386 2.643.34 5.654-1.522 7.788-.949 1.086.651 2.68 1.608 1.585 2.456-2.813 2.62-6.453 2.107-9.97-.09-.603-.86-.923-1.4-.783M195.214 129.451c.454 2.39-.353 4.878-2.061 6.617-1.021 1.034.586 2.622 1.607 1.585 2.303-2.345 3.253-5.604 2.648-8.8-.27-1.417-2.462-.818-2.194.598M202.011 125.937c-2.089-1.473-3.094-4-2.826-6.48.065-.606-.571-1.116-1.138-1.12-.667-.008-1.071.52-1.136 1.12-.359 3.299 1.245 6.507 3.953 8.416 1.192.84 2.328-1.101 1.147-1.936M190.14 123.924c.008-.664-.53-1.051-1.137-1.119-2.782-.32-5.324-1.953-6.815-4.271-.78-1.217-2.748-.092-1.964 1.13 1.96 3.05 5.16 4.97 8.779 5.381.614.07 1.131-.564 1.137-1.121M215.21 112.5c1.458-.056 1.465-2.296 0-2.243-2.67.1-5.04-1.772-5.568-4.344-.29-1.414-2.482-.817-2.192.594.716 3.506 4.144 6.129 7.76 5.993M179.026 138.33c-1.565-.862-3.046-1.959-3.948-3.519-1.058-1.833-.927-4.025-.833-6.057.065-1.442-2.21-1.439-2.276 0-.111 2.45-.125 4.99 1.145 7.187 1.088 1.883 2.87 3.283 4.764 4.325 1.279.705 2.427-1.232 1.148-1.936M207.495 117.402c.218-2.807-.803-5.548-2.722-7.616-.991-1.067-2.596.523-1.609 1.584 1.536 1.654 2.23 3.811 2.056 6.032-.113 1.44 2.163 1.434 2.275 0M215.81 97.429c.694 2.571 1.743 6.511-1.01 8.337-1.207.8-.07 2.745 1.148 1.935 3.763-2.493 3.062-7.141 2.055-10.868-.376-1.393-2.57-.803-2.192.596M172.506 140.648c-1.853-.073-4.04-1.257-5.4-2.458-1.485-1.31-2.369-3.089-2.11-5.074.08-.606-.58-1.115-1.137-1.122-.679-.006-1.057.523-1.137 1.122-.329 2.51.904 5.006 2.776 6.659 1.826 1.611 4.526 3.02 7.008 3.114 1.464.056 1.462-2.186 0-2.241M211.897 124.103c-2.904-.25-6.197-.923-7.877-3.524-.784-1.212-2.753-.09-1.964 1.132 2.156 3.338 6.077 4.312 9.841 4.633 1.457.127 1.448-2.118 0-2.241M188.883 113.9a15.585 15.585 0 0 0 9.781.22c1.392-.425.798-2.59-.606-2.162-2.839.868-5.78.782-8.571-.22-1.377-.495-1.971 1.67-.604 2.162M169.919 145.656c-1.264-.604-2.57-.82-3.619-1.809-.93-.875-1.618-1.953-2.295-3.022-.775-1.222-2.743-.099-1.965 1.13.776 1.226 1.586 2.473 2.651 3.48.507.476 1.082.916 1.704 1.24.76.392 1.61.551 2.376.92 1.311.627 2.465-1.305 1.148-1.939M170.351 128.78c1.096-.96-.516-2.542-1.607-1.587-2.325 2.04-5.59 1.974-8.414 1.169-1.408-.405-2.01 1.758-.606 2.16 3.655 1.044 7.678.844 10.627-1.742M188.494 109.973c1.105-1.829 2.073-3.848 1.777-6.033-.279-2.065-1.721-3.49-3.312-4.724-.491-.38-1.141-.461-1.621 0-.4.387-.486 1.222 0 1.598 1.138.88 2.462 1.89 2.678 3.4.24 1.661-.674 3.251-1.502 4.618-.756 1.254 1.224 2.391 1.98 1.14M184.078 112.367c-4.355.18-8.405 2.577-10.56 6.325-.73 1.269 1.25 2.407 1.978 1.138 1.752-3.041 5.025-5.055 8.582-5.203 1.47-.062 1.478-2.322 0-2.26M160.145 151.009c1.435-.272.827-2.434-.605-2.163-1.47.28-2.917.019-4.273-.583-1.116-.493-2.447-1.32-2.611-2.644-.074-.604-.469-1.114-1.136-1.12-.559-.006-1.211.52-1.137 1.12.532 4.325 5.945 6.116 9.762 5.39M183.857 105.271c-3.533.86-6.57 2.944-8.705 5.834-.87 1.178 1.118 2.307 1.979 1.14 1.78-2.411 4.41-4.084 7.335-4.795 1.432-.347.826-2.528-.609-2.179M177.826 122.565a15.653 15.653 0 0 1-8.418-2.544c-1.228-.797-2.367 1.143-1.148 1.934 2.842 1.843 6.168 2.82 9.566 2.853 1.464.011 1.464-2.23 0-2.243M161.478 107.46c-.534-.149-1.309.188-1.4.786-.453 3-2.562 5.184-4.622 7.276-1.02 1.036.587 2.623 1.608 1.585 2.309-2.342 4.7-4.905 5.209-8.266.091-.602-.155-1.198-.795-1.38M165.486 115.305c.368-.488.078-1.246-.408-1.532-.576-.342-1.19-.083-1.555.4-1.184 1.576-1.397 3.643-1.515 5.544-.13 2.066.33 4.076 1.386 5.868.735 1.248 2.702.12 1.964-1.131-.866-1.473-1.182-3.046-1.076-4.737.095-1.535.25-3.144 1.204-4.412M145.223 59.989c.072-.606-.572-1.115-1.136-1.122-.674-.006-1.066.522-1.137 1.122-.421 3.542-3.115 6.352-6.59 7.178-1.423.337-.821 2.5.602 2.16 4.54-1.078 7.723-4.811 8.26-9.338M149.047 68.484c-.224.568.282 1.22.824 1.361.654.17 1.16-.251 1.38-.812 1.135-2.879-.022-5.844-1.35-8.438-.66-1.29-2.61-.134-1.952 1.15 1.077 2.106 2.016 4.41 1.098 6.74M146.528 79.53c-.406.393-.48 1.217 0 1.599 2.776 2.194 6.308 2.951 9.811 2.62 1.456-.135 1.47-2.398 0-2.26-2.843.27-5.9-.147-8.19-1.96-.487-.383-1.144-.46-1.62 0M144.045 93.116c1.438-.318.831-2.496-.61-2.18-4.03.887-8.407.972-11.838-1.605-.497-.373-1.278-.072-1.569.405-.351.575-.078 1.178.412 1.546 3.903 2.93 9.032 2.839 13.605 1.834M197.001 94.118c-.732 1.267 1.247 2.407 1.979 1.14 2.435-4.214 1.929-9.539-1.112-13.315-.387-.48-1.214-.391-1.62 0-.485.467-.383 1.123 0 1.599 2.386 2.963 2.635 7.315.753 10.576M143.448 85.837c1.657-3.612 1.145-7.716-1.319-10.838-.382-.486-1.217-.39-1.62 0-.487.469-.378 1.116 0 1.596 1.77 2.244 2.147 5.516.96 8.103-.603 1.313 1.371 2.464 1.98 1.139M131.95 145.114c-.993-1.063-2.598.526-1.607 1.585 1.107 1.185 1.732 2.991 2.032 4.555.347 1.794-.187 3.648-.552 5.4-.295 1.406 1.897 2.01 2.192.594.454-2.176.998-4.37.555-6.59-.393-1.962-1.236-4.065-2.62-5.544M174.73 88.357c-1.442-.27-2.06 1.908-.61 2.179 4.827.902 7.258-5.196 5.675-8.913-.24-.567-.754-.959-1.41-.79-.539.142-1.038.83-.8 1.39.543 1.275.621 2.666.077 3.96-.455 1.08-1.602 2.424-2.933 2.174M139.429 59.427c1.558-2.322 2.247-5.154 1.883-7.919-.08-.604-.465-1.112-1.137-1.122-.554-.005-1.216.522-1.138 1.122.319 2.418-.207 4.751-1.57 6.787-.81 1.207 1.158 2.33 1.962 1.132M132.06 72.228c2.36 2.256 3.564 5.382 3.41 8.61-.07 1.447 2.206 1.377 2.274-.056.184-3.814-1.367-7.55-4.142-10.201-1.048-1.004-2.597.639-1.543 1.647M193.503 106.51c.535.151 1.31-.182 1.4-.782.447-2.994 3.086-4.695 5.48-6.205 1.227-.776.087-2.717-1.15-1.935-2.855 1.801-5.988 3.98-6.525 7.544-.09.603.155 1.197.795 1.379M228.18 100.724c.876 3.595.37 7.398-1.415 10.653-.697 1.269 1.265 2.402 1.963 1.132a17.218 17.218 0 0 0 1.646-12.383c-.341-1.403-2.535-.808-2.193.598M211.83 118.19c-1.29-.68-2.441 1.255-1.148 1.937 1.422.749 2.894 1.514 4.032 2.664 1.248 1.261 1.622 2.984 2.156 4.61.45 1.367 2.645.782 2.193-.595-.637-1.94-1.142-3.889-2.575-5.428-1.285-1.382-3.002-2.312-4.658-3.187M234.01 104.974c-.56-.006-1.21.52-1.138 1.122.222 1.87.507 3.763.358 5.653-.138 1.757-.735 3.443-1.63 4.96-.742 1.248 1.223 2.377 1.96 1.131a14.098 14.098 0 0 0 1.886-5.525c.252-2.076-.054-4.157-.3-6.219-.072-.607-.471-1.115-1.136-1.122M220.717 96.969a22.398 22.398 0 0 1 1.469 10.854c-.066.607.57 1.115 1.138 1.121.669.008 1.07-.522 1.137-1.12a23.83 23.83 0 0 0-1.551-11.448c-.53-1.327-2.729-.75-2.193.593M169.758 115.261c2.783-2.439 3.99-6.179 3.331-9.762-.261-1.417-2.452-.818-2.193.597.517 2.813-.598 5.7-2.745 7.579-1.096.96.517 2.54 1.607 1.586M156.402 145.493a9.222 9.222 0 0 0 3.847-4.67c.814-2.18.563-4.443-.164-6.611-.458-1.362-2.654-.778-2.193.598.581 1.733.846 3.429.245 5.192-.504 1.476-1.546 2.735-2.884 3.555-1.242.758-.1 2.697 1.15 1.936M168.119 106.98c-2.094-2.283-2.995-5.503-2.368-8.519.292-1.408-1.9-2.012-2.192-.597a12.14 12.14 0 0 0 2.95 10.704c.984 1.071 2.588-.517 1.61-1.587M162.202 77.625c-.847-1.177-2.836-.047-1.978 1.142 1.45 2.01 3.694 3.014 6.045 3.663 2.665.736 5.534 1.011 8.195.122 1.391-.463.795-2.645-.608-2.176-2.197.733-4.484.53-6.695-.049-1.799-.471-3.831-1.139-4.959-2.702M155.11 68.606c.528.15 1.316-.183 1.398-.782.38-2.756 1.57-5.282 3.534-7.286 1.016-1.04-.589-2.627-1.609-1.585-2.214 2.26-3.688 5.154-4.118 8.274-.084.606.149 1.196.794 1.379M152.932 78.632c.535.15 1.308-.187 1.398-.784.434-2.855 4-4.373 6.304-5.531 1.305-.657.155-2.591-1.147-1.939-2.841 1.431-6.822 3.383-7.349 6.873-.093.603.154 1.199.794 1.38M163.995 74.554c-.114 1.439 2.16 1.43 2.274 0 .306-3.831-.97-7.58-3.421-10.545-.924-1.12-2.524.476-1.608 1.586 2.077 2.513 3.011 5.745 2.755 8.959M147.667 97.328c1.388-1.564 2.01-3.538 2.02-5.601.005-1.042-.109-2.166-.507-3.136-.403-.98-1.11-1.768-1.828-2.534-1.004-1.07-2.622.529-1.621 1.597.499.532 1.055 1.087 1.335 1.772.29.71.331 1.544.328 2.301-.004 1.436-.371 2.903-1.349 4.003-.968 1.09.647 2.694 1.622 1.598M142.214 100.833c3.293 1.568 6.795 3.163 10.55 2.68.612-.08 1.129-.46 1.135-1.122.006-.545-.527-1.2-1.135-1.121-3.371.435-6.443-.964-9.402-2.373-1.313-.627-2.467 1.308-1.148 1.936M161.181 154.317c-3.985-1.596-8.396-1.879-12.572-.891-1.423.337-.822 2.498.603 2.16 3.807-.9 7.744-.56 11.364.891.573.231 1.244-.248 1.399-.784.185-.637-.229-1.15-.794-1.376M146.808 158.693c-1.948.5-3.494 1.77-4.686 3.331-1.217 1.594-2.36 3.573-2.963 5.485-.432 1.38 1.762 1.972 2.193.594.491-1.559 1.457-3.155 2.397-4.491.902-1.28 2.108-2.356 3.663-2.757 1.415-.364.816-2.527-.604-2.162"/><path fill="#1A1919" d="M175.766 75.791c-1.442.298-.832 2.479.61 2.18 4.072-.84 7.707 2.402 7.527 6.427-.063 1.456 2.227 1.451 2.293 0 .112-2.57-.985-5.202-3.014-6.852-2.081-1.693-4.785-2.297-7.416-1.755M182.058 91.289c1.714-1.149 3.787-1.292 5.789-.948 1.704.291 4.061.664 5.238 2.04.952 1.114 2.566-.492 1.62-1.597-1.498-1.754-4.36-2.332-6.548-2.67-2.493-.39-5.112-.211-7.256 1.22-1.215.812-.068 2.774 1.157 1.955M141.948 71.883c1.327.113 2.884.933 4.013 1.602 1.304.768 2.002 1.877 2.682 3.182.67 1.283 2.631.152 1.963-1.13-.859-1.648-1.86-3.022-3.497-3.99-1.506-.889-3.403-1.757-5.16-1.905-1.459-.125-1.45 2.119 0 2.24M170.264 77.549c.857-4.056 5.653-4.922 9.129-5.518 1.45-.249.836-2.428-.61-2.18-4.319.741-9.692 2.184-10.728 7.096-.302 1.42 1.908 2.025 2.209.602M154.931 133.072c2.593-3.071 3.069-7.012 2.85-10.88-.08-1.436-2.355-1.445-2.272 0 .18 3.2-.01 6.718-2.187 9.296-.931 1.102.67 2.694 1.61 1.584M153.682 108.9c-1.102.954.512 2.535 1.607 1.587 3-2.6 4.578-6.664 4.05-10.572-.083-.605-.464-1.114-1.137-1.121-.552-.005-1.219.521-1.136 1.12.458 3.388-.777 6.726-3.384 8.986M151.64 96.89c-.37.493-.076 1.257.412 1.545.58.342 1.2.082 1.567-.405 1.983-2.634 5.323-3.987 8.603-3.718 1.47.118 1.461-2.14 0-2.261-4.136-.335-8.13 1.584-10.582 4.838M147.535 151.541c1.46.106 1.454-2.137 0-2.242a17.872 17.872 0 0 1-10.813-4.72c-1.063-.991-2.673.591-1.607 1.584 3.396 3.16 7.77 5.037 12.42 5.378M141.936 156.368c.572-.235.965-.741.795-1.38-.143-.528-.833-1.014-1.399-.783-1.766.724-3.279 1.923-4.178 3.611-.984 1.846-1.68 4.084-2.018 6.135-.1.604.158 1.2.795 1.378.54.153 1.3-.186 1.397-.782.288-1.746.865-3.508 1.567-5.135.58-1.346 1.659-2.477 3.04-3.044M168.604 92.155c-1.475.017-1.478 2.275 0 2.261 1.37-.016 3.09-.284 4.39.213 1.097.42 2.255 1.329 2.786 2.37.665 1.298 2.641.156 1.979-1.143-.716-1.401-2.185-2.548-3.619-3.19-1.713-.77-3.707-.53-5.536-.51M203.79 102.463c1.13-.852 2.52-.825 3.882-.831 1.535-.01 3.036.033 4.49.57 1.372.507 1.965-1.658.605-2.163-1.718-.634-3.569-.665-5.382-.647-1.642.013-3.39.115-4.743 1.136-.49.372-.739.96-.408 1.533.275.478 1.07.77 1.555.402M202.274 104.762a14.986 14.986 0 0 1-6.32 3.424c-1.412.372-.813 2.535.604 2.162a17.404 17.404 0 0 0 7.324-4.002c1.075-.982-.536-2.564-1.608-1.584M205.015 93.117c-.082.607.146 1.195.795 1.378.527.151 1.317-.183 1.398-.781.438-3.222-.142-6.415-1.81-9.234-.738-1.246-2.704-.118-1.965 1.131 1.335 2.255 1.936 4.907 1.582 7.506M183.03 97.817a8.358 8.358 0 0 1 9.094.098c1.226.815 2.375-1.14 1.158-1.95-3.373-2.241-7.995-2.275-11.407-.1-1.236.788-.088 2.744 1.155 1.952M176.126 100.428c-1.34-.32-3.6-1.1-4.106-2.53-.481-1.365-2.695-.779-2.208.599.755 2.136 3.122 3.37 5.203 3.976 2.229.653 4.66.605 6.858-.144 1.386-.474.79-2.656-.608-2.18-1.664.567-3.423.69-5.14.28M169.107 87.085c-4.442-1.58-9.345-1.278-13.606.692-1.334.616-.172 2.567 1.157 1.953 3.717-1.722 7.997-1.834 11.841-.465 1.39.496 1.988-1.687.608-2.18M155.382 137.792c-3.46-.738-6.118-3.504-6.454-7.022-.136-1.424-2.412-1.439-2.275 0 .426 4.48 3.618 8.223 8.123 9.186 1.428.302 2.037-1.86.606-2.164M137.294 104.805c-.08.608.585 1.123 1.146 1.13.686.007 1.067-.527 1.146-1.13.279-2.112-.49-4.459-1.64-6.234-1.127-1.738-2.895-2.986-5.034-3.032-1.476-.034-1.476 2.227 0 2.259 3.15.068 4.721 4.43 4.382 7.007M141.573 107.746a15.337 15.337 0 0 1-8.521 1.16c-.613-.093-1.216.153-1.4.782-.154.532.19 1.288.794 1.38 3.535.54 7.017.073 10.275-1.387 1.329-.596.175-2.529-1.148-1.935M137.437 131.878c1.294 3.546 3.778 6.607 7.187 8.372 1.296.67 2.447-1.263 1.147-1.937-2.875-1.488-5.043-4.023-6.141-7.03-.492-1.349-2.69-.768-2.193.595"/><path fill="#1A1919" d="M137.07 142.059c.784.86 1.61 1.686 2.712 2.136 1.181.481 2.597.598 3.865.563 2.428-.069 4.651-.979 6.132-2.91.374-.488.073-1.25-.408-1.534-.58-.342-1.187-.08-1.556.402-1.031 1.345-2.84 1.806-4.47 1.802-.876 0-1.884-.042-2.703-.383-.804-.33-1.395-1.038-1.963-1.661-.98-1.076-2.583.513-1.609 1.585M140.236 113.696c-.115 3.244 1.6 6.326 4.388 8.028 1.25.762 2.393-1.176 1.147-1.935a6.839 6.839 0 0 1-3.262-6.093c.052-1.441-2.223-1.441-2.273 0M138.617 122.875a13.207 13.207 0 0 0 4.59 7.677c1.118.914 2.737-.663 1.608-1.587-2.113-1.725-3.494-4.029-4.004-6.686-.273-1.415-2.467-.815-2.194.596M150.882 127.344c.96-1.77.937-3.845.644-5.783-.279-1.854-1.014-3.61-2.35-4.964-1.024-1.036-2.63.55-1.608 1.585 1.004 1.02 1.505 2.344 1.729 3.73.221 1.378.307 3.037-.38 4.3-.689 1.273 1.274 2.406 1.965 1.132"/><g transform="translate(127 36)"><mask id="b" fill="#fff"><use xlink:href="#a"/></mask><path fill="#1A1919" d="M25.25 76.298c-2.413-1.152-3.996-3.52-4.016-6.178-.01-1.443-2.285-1.447-2.274 0 .023 3.394 2.03 6.627 5.144 8.115 1.31.626 2.464-1.308 1.147-1.937" mask="url(#b)"/><path fill="#1A1919" d="M2.287 140.654c.038.043.07.086.11.128.45.484.958.907 1.492 1.297l-1.602.912v-2.337zm116.99-66.368c-.923-1.12-2.523.476-1.607 1.585.27.326.52.667.755 1.017l-2.014 1.146a1.129 1.129 0 0 0-.879.057 13.519 13.519 0 0 0-3.51 2.441l-7.447 4.238a1.14 1.14 0 0 0-.59-.495c-3.324-1.285-5.683-4.324-6.299-7.754-.253-1.42-2.445-.817-2.19.595.697 3.896 3.357 7.17 6.908 8.89l-4.33 2.465c.014-.14.003-.29-.048-.455a14.921 14.921 0 0 0-6.851-8.511c-1.27-.726-2.416 1.212-1.15 1.935 2.785 1.588 4.864 4.139 5.81 7.172.124.4.399.63.714.726l-9.214 5.245a49.864 49.864 0 0 1-.475-1.273c-.483-1.35-2.682-.77-2.192.595.218.605.451 1.206.697 1.8l-2.18 1.24a.978.978 0 0 0-.536.305l-6.655 3.788c.27-.287.529-.586.77-.9 1.217-1.594 2.362-3.575 2.962-5.487.433-1.382-1.76-1.972-2.193-.597-.49 1.561-1.457 3.156-2.396 4.495-.902 1.28-2.11 2.356-3.666 2.756-1.27.328-.913 2.1.202 2.193l-2.629 1.496c-.433-.548-1.424-.736-1.945.029-1.685 2.466-5.207 2.284-7.847 2.18-1.464-.058-1.461 2.186 0 2.243.635.025 1.283.033 1.931.022l-5.458 3.107c-.244-1.614-.387-3.313-.203-4.914.198-1.72 1.335-3.091 2.419-4.374.93-1.102-.67-2.697-1.608-1.583-1.345 1.593-2.687 3.26-3.011 5.37-.337 2.19-.061 4.518.305 6.695l-2.587 1.473c-.295-.62-.617-1.226-1.01-1.782-.655-.927-1.55-1.502-2.548-2.023-1.293-.67-2.443 1.263-1.147 1.939.717.372 1.414.733 1.867 1.418.325.496.605 1.03.865 1.57l-3.361 1.913c-.503-1.262-1.328-2.404-2.046-3.551-.766-1.225-2.734-.101-1.963 1.13.666 1.066 1.513 2.152 1.94 3.334.026.075.04.152.063.23l-2.29 1.303a11.935 11.935 0 0 0-3.17-4.993c-1.062-.993-2.672.59-1.608 1.585a10.1 10.1 0 0 1 2.78 4.545l-7.543 4.293c-.543-1.696-1.414-3.3-2.474-4.743-.851-1.154-2.825-.038-1.965 1.132 1.076 1.462 1.948 3.058 2.41 4.766l-6.252 3.56a7.552 7.552 0 0 1 2.146-4.774c1.019-1.038-.587-2.625-1.609-1.585a9.816 9.816 0 0 0-2.796 7.644l-8.232 4.685a9.233 9.233 0 0 0-3.367-2.441c-.575-.24-1.221-.164-1.567.405-.287.472-.158 1.31.41 1.547a7.645 7.645 0 0 1 2.458 1.665l-4.96 2.823c-.683-.426-1.334-.897-1.9-1.468-1.03-1.038-1.465-2.394-1.884-3.75v-7.769c.138.135.282.265.408.408 1.14 1.302 1.755 2.992 2.33 4.592.485 1.35 2.681.77 2.192-.598-.684-1.905-1.432-3.802-2.745-5.382-.617-.742-1.377-1.368-2.185-1.945v-18.932c.405.129.894.073 1.16-.259 1.25-1.574 2.753-3.125 3.561-4.98.752-1.73.909-3.575.562-5.415-.268-1.416-2.46-.817-2.194.595.264 1.4.082 2.9-.559 4.181-.634 1.267-1.618 2.378-2.53 3.481v-6.402c.916-2.024.704-4.412.13-6.505-.039-.143-.086-.282-.13-.423v-5.548a19.464 19.464 0 0 1 5.32 5.216c.816 1.19 2.787.069 1.965-1.13a22.136 22.136 0 0 0-6.828-6.464 1.116 1.116 0 0 0-.457-.16v-3.719a14.481 14.481 0 0 1 5.46 3.559c1.009 1.048 2.614-.537 1.609-1.588a16.729 16.729 0 0 0-7.069-4.349v-4.512a12.14 12.14 0 0 0 3.728-3.344c.851-1.173-.956-2.533-1.81-1.36a9.813 9.813 0 0 1-1.918 1.97V48.793c2.183 1.81 4.945 2.927 7.885 3.001 1.475.036 1.474-2.225 0-2.26-3.051-.077-5.977-1.572-7.885-3.89V39.42c.67-.29 1.087-1.166.4-1.805-.128-.118-.266-.216-.4-.323v-4.681a.989.989 0 0 0 .58-.348 20.141 20.141 0 0 1 6.29-4.916c1.304-.656.154-2.591-1.147-1.936a21.815 21.815 0 0 0-5.723 4.16V24.01a10.79 10.79 0 0 1 4.64-2.527c1.414-.366.813-2.528-.606-2.163a13.011 13.011 0 0 0-4.034 1.832v-3.147c1.419-1.33 2.527-2.937 3.05-4.931.366-1.393-1.798-2.084-2.166-.686a7.817 7.817 0 0 1-.884 2.073V6.002c1.582.023 3.02.633 4.368 1.452.666.404 1.419.825 1.89 1.458.473.631.661 1.431.867 2.175.382 1.39 2.576.799 2.193-.598a16.214 16.214 0 0 0-.458-1.45l5.385 3.065c.329 1.216.503 2.474.488 3.74-.017 1.443 2.258 1.443 2.274 0a15.029 15.029 0 0 0-.152-2.253l3.363 1.914a8.588 8.588 0 0 1-1.07 2.733c-.757 1.238 1.209 2.368 1.964 1.13.516-.844.897-1.754 1.16-2.695l4.097 2.332a9.145 9.145 0 0 0-3.373 2.43c-.945 1.09.655 2.682 1.61 1.584 1.201-1.384 2.748-2.147 4.423-2.499l8.025 4.567c-.104.183-.207.366-.318.545-.767 1.234 1.2 2.36 1.963 1.13.113-.183.218-.368.324-.554l1.704.97c-1.008 1.614-1.599 3.458-1.527 5.377.054 1.438 2.327 1.445 2.274 0-.058-1.545.415-2.994 1.218-4.258l12.496 7.112c.558.927 1.232 1.791 1.959 2.6.646.72 1.565.264 1.838-.44l2.385 1.36c-.988 1.83-1.56 3.716-1.25 5.868.311 2.158 1.423 4.2 3.153 5.574.487.384 1.145.457 1.621 0 .406-.394.481-1.217 0-1.6-1.378-1.09-2.285-2.616-2.53-4.35-.23-1.61.255-3.007.99-4.364l1.569.893c.028.214.126.429.327.624 1.17 1.124 2.913 1.735 4.51 2.13l13.836 7.874c-.207.143-.364.34-.398.59-.372 2.703-1.436 5.257-3.212 7.365-.928 1.103.673 2.696 1.61 1.584 2.022-2.399 3.368-5.253 3.794-8.355.007-.053.009-.104.011-.157l3.851 2.193c.128.2.328.364.621.45.102.029.206.052.308.078l7.602 4.328c.09.315.33.58.773.664.183.035.368.062.552.09l8.212 4.674c.325 3.264 1.384 6.418 3.58 8.969.95 1.1 2.551-.493 1.61-1.585-1.47-1.708-2.284-3.79-2.688-5.96l9.029 5.139c.428.985.97 1.917 1.613 2.78l-2.386 1.358a16.444 16.444 0 0 0-1.087-1.497zM0 .09v146.805l128.96-73.402L0 .091z" mask="url(#b)"/></g></g></svg>