<svg xmlns="http://www.w3.org/2000/svg" width="440" height="302" viewBox="0 0 440 302"><g fill="none" fill-rule="evenodd"><path fill="#0DAF5C" d="M0-80L293 90 0 260z"/><path fill="#17AF4F" d="M219 217l74 42.5-74 42.5z"/><path fill="#FFF" d="M295.63 94.563L434.739 175l-139.107 80.438V94.563zM293 90v170l147-85-147-85z"/><path fill="#BFDFF0" d="M261.39 167.305v-11.597l30.243 17.393-30.243-5.796zm0 9.232H294l-32.61 18.755v-18.755zm-46.387 30.71l38.405-7.364-64.004 36.812 25.599-29.448zm-37.01 20.576l4.473 12.863-31.308 18.006 26.834-30.87zM147 220.287l25.242-4.84L147 259v-38.713zm22.291-89.824H147V92l22.291 38.463zm34.16-.002l-14.045-16.155 28.087 16.155h-14.042zm47.94 34.927l7.908-9.096v10.612l-7.908-1.516zm-7.88 9.066l6.3-7.248 9.488 1.82v5.428H243.51zm-.002 2.083h15.79v18.162l-15.79-18.162zm-2.287.55l17.147 19.724-41.154 7.892 24.007-27.616zm-46.956 32.017l28.31-32.567h16.358l-25.038 28.802-19.63 3.765zm-2.213 2.544l19.63-3.764-27.437 31.562-4.673-13.44 12.48-14.358zm-16.38 3.141l13.061-2.505-9.951 11.448-3.11-8.943zm-1.621 1.7l3.15 9.062-25.21 28.998 22.06-38.06zm-9.562-27.496l8.417 24.206-25.252 4.842 16.835-29.048zm18.155-35.49l-17.678 30.501-17.893-51.456 23.425-.002 12.146 20.958zm-10.939-23.04l-19.714-34.014 29.572 34.014h-9.858zm32.33 25.849l-19.517-3.742-11.606-20.024h10.462l20.661 23.766zm4.107-2.811l-1.514 2.61-20.489-23.566h9.856l12.147 20.956zm-10.94-23.04l-6.963-12.014 10.445 12.015h-3.481zm15.968 14.362l-3.822 6.595-10.939-18.873h4.086l10.675 12.278zm1.106-1.909l-9.016-10.37 15.027-.001-6.011 10.371zm-1.072 15.155l-2.648-4.568 4.063-7.012 12.363 14.22-13.778-2.64zm-1.333 1.865l3.839 6.624-6.144-7.065 2.305.44zm-3.434-2.779l.911-1.572 1.139 1.966-2.05-.394zM174.53 211.5l-8.657-24.893 18.512-31.941 20.775 3.982-30.63 52.852zm32.441-51.814l13.744 15.81-29.768 34.244-14.607 2.8 30.631-52.854zm25.543 4.205l14.926 2.861-6.22 7.155-8.706-10.016zm6.418 10.563h-16.23l-8.115-13.998 14.608 2.8 9.737 11.198zM147 138.696l16.585 47.694L147 215.007v-76.311zm114.39 30.73l26.235 5.028H261.39v-5.028zm-2.899-15.386l-9.47 10.894-18.72-3.588-14.576-16.766 6.58-11.352 36.186 20.812zm-75.056-43.168l11.355 19.59h-10.46l-33.17-38.153 32.275 18.563z"/></g></svg>