<svg xmlns="http://www.w3.org/2000/svg" width="410" height="179" viewBox="0 0 410 179"><g fill="none" fill-rule="nonzero"><path fill="#144372" d="M0 84.866c.006-1.54 1.269-2.786 2.828-2.791h6.959a3.328 3.328 0 0 1 2.675 1.767l2.36 5.842c5.352-5.812 12.96-9.098 20.917-9.035 18.383 0 28.17 13.894 28.17 30.58v26.633c-.053 1.514-1.284 2.729-2.818 2.78H45.23a2.837 2.837 0 0 1-1.993-.814 2.762 2.762 0 0 1-.825-1.966v-27.397c0-5.852-3.419-10.972-10.082-10.972-5.941 0-11.272 4.246-11.272 10.25v28.109a2.46 2.46 0 0 1-.671 2.015 2.531 2.531 0 0 1-2.005.766H2.828c-1.543-.052-2.78-1.278-2.828-2.801V84.866M104.718 80.648c17.508 0 31.949 13.72 31.949 29.85 0 16.425-14.441 30.145-31.95 30.145-17.508 0-31.96-13.72-31.96-30.144 0-16.13 14.442-29.85 31.96-29.85m0 41.57c3.288-.059 6.416-1.332 8.692-3.539 2.276-2.206 3.514-5.164 3.441-8.22.186-4.139-2.083-8.04-5.91-10.16-3.827-2.12-8.597-2.12-12.424 0s-6.096 6.021-5.91 10.16c-.13 6.343 5.289 11.586 12.112 11.72v.04zM172.56 80.648c17.518 0 31.948 13.72 31.948 29.85 0 16.425-14.43 30.145-31.949 30.145-17.519 0-31.96-13.72-31.96-30.144 0-16.13 14.452-29.85 31.96-29.85m0 41.57c3.288-.059 6.415-1.332 8.692-3.539 2.276-2.206 3.514-5.164 3.44-8.22.186-4.139-2.083-8.04-5.91-10.16-3.827-2.12-8.596-2.12-12.423 0s-6.096 6.021-5.91 10.16c-.13 6.343 5.289 11.586 12.111 11.72v.04zM215.334 84.835a2.736 2.736 0 0 1 .77-2.002 2.603 2.603 0 0 1 1.954-.79h6.556a2.937 2.937 0 0 1 2.43 1.617l2.43 6.024c3.578-3.795 10.143-9.036 19.287-9.036 7.996 0 13.572 3.072 18.707 8.925 3.283-3.373 10.006-8.925 19.718-8.925 17.718 0 26.46 14.055 26.46 30.73v26.484c-.006 1.534-1.218 2.775-2.715 2.78h-15.17a2.682 2.682 0 0 1-1.926-.81 2.816 2.816 0 0 1-.799-1.97v-27.427c0-5.853-2.999-10.973-9.574-10.973-5.31.071-9.572 4.51-9.555 9.949v28.39c-.005 1.538-1.224 2.782-2.724 2.782h-13.72c-1.497-.006-2.71-1.248-2.715-2.781v-27.367c0-5.853-2.567-10.973-8.996-10.973a9.57 9.57 0 0 0-7.172 2.903 10.06 10.06 0 0 0-2.833 7.347v28.11c-.046 1.512-1.23 2.729-2.705 2.78h-14.994a2.682 2.682 0 0 1-1.926-.81 2.816 2.816 0 0 1-.798-1.97V84.835M326.427 82.478c.006-1.551 1.422-2.808 3.17-2.813h18.25c1.747.005 3.16 1.263 3.16 2.813v53.395c-.059 1.526-1.44 2.75-3.16 2.803h-18.25c-1.721-.052-3.105-1.276-3.17-2.803V82.478M361.458 132.965l5.45-9.875c.638-1.062 2.018-1.544 3.262-1.138 0 0 7.305 3.717 13.98 3.717a2.889 2.889 0 0 0 2.109-.681c.566-.492.877-1.182.856-1.898 0-1.432-.938-3.432-8.861-6.002-12.125-3.854-17.415-10.286-17.415-19.141 0-9.581 7.465-17.299 24.25-17.299 9.8 0 17.254 2.422 20.667 4.423 1.407.863 2.495 2.157 1.557 3.58l-5.748 9.727c-.75.934-2.094 1.281-3.263.843 0 0-7.156-3.275-13.213-3.275-2.026 0-3.412.422-3.412 1.961 0 1.432 1.706 2.844 6.995 4.57 12.584 4.001 21.328 8.58 21.328 20.005 0 10.012-8.702 18.16-26.276 18.16-10.248 0-18.022-2.431-21.136-4.716-1.066-.863-1.855-1.726-1.066-3M174.006 154.414c3.18-.055 6.26 1.067 8.6 3.133.14.121.221.294.221.475 0 .182-.08.355-.221.476l-1.503 1.577c-.24.313-.555.313-.882 0a9.89 9.89 0 0 0-6.14-2.277c-4.965.164-8.903 4.074-8.903 8.84 0 4.768 3.938 8.678 8.904 8.842a9.748 9.748 0 0 0 6.107-2.246c.244-.2.604-.2.849 0l1.644 1.535a.65.65 0 0 1 0 .93c-2.316 2.149-5.422 3.335-8.644 3.3-4.57 0-8.792-2.339-11.077-6.136a11.842 11.842 0 0 1 0-12.271c2.285-3.797 6.507-6.136 11.077-6.136M188.777 155.07c.01-.363.246-.652.538-.658h1.874c.292.006.528.295.538.657v23.263c-.014.362-.247.652-.538.668h-1.874c-.292-.016-.525-.306-.538-.668V155.07"/><path fill="#144372" d="M191.803 178.097l11.421-23.293a.884.884 0 0 1 .628-.392h.377a.886.886 0 0 1 .64.392l11.352 23.293a.566.566 0 0 1-.018.627.67.67 0 0 1-.61.273h-2.353c-.373.017-.716-.187-.856-.508l-2.284-4.743h-12.186c-.743 1.588-1.52 3.176-2.285 4.743a.955.955 0 0 1-.856.508h-2.341a.68.68 0 0 1-.6-.279.576.576 0 0 1-.029-.62m16.892-7.317l-4.568-9.466h-.195l-4.568 9.466h9.33zM218.273 155.07c0-.176.063-.345.175-.469a.552.552 0 0 1 .42-.189h6.99c3.83 0 6.503 2.804 6.503 6.47-.132 2.38-1.365 4.505-3.247 5.598 1.657.765 3.908 2.49 3.908 5.737 0 3.936-2.873 6.783-6.82 6.783h-7.335c-.328 0-.594-.3-.594-.669v-23.293m7.901 20.727c.905.012 1.775-.39 2.413-1.114.637-.723.986-1.707.968-2.725 0-2.157-1.82-3.689-3.83-3.689h-4.282v7.55l4.731-.022zm-.498-10.698c.883.03 1.737-.362 2.35-1.08.612-.716.928-1.69.868-2.684.06-.98-.26-1.942-.876-2.636-.617-.695-1.471-1.055-2.342-.987h-4.214v7.387h4.214zM244.82 155.07a.72.72 0 0 1 .157-.469.494.494 0 0 1 .389-.189h11.681a.501.501 0 0 1 .392.189.73.73 0 0 1 .163.468v1.971a.743.743 0 0 1-.163.472.512.512 0 0 1-.392.196h-9.221v8.12h7.8c.303.011.549.302.563.668v1.928c-.014.366-.26.657-.564.668h-7.782v9.24c-.013.366-.26.657-.563.668h-1.896a.505.505 0 0 1-.39-.196.733.733 0 0 1-.156-.472V155.07M263.51 155.07a.721.721 0 0 1 .157-.468.494.494 0 0 1 .389-.19h11.672a.501.501 0 0 1 .392.189.73.73 0 0 1 .163.469v1.972a.744.744 0 0 1-.162.473.512.512 0 0 1-.393.196h-9.221v7.168h7.79c.303.011.546.304.555.668v1.973c0 .369-.248.668-.555.668h-7.79v7.546h9.221a.5.5 0 0 1 .392.189.73.73 0 0 1 .163.468v1.94c0 .37-.248.669-.555.669h-11.681a.504.504 0 0 1-.39-.196.735.735 0 0 1-.156-.472v-23.284M286.115 155.07c0-.176.063-.345.175-.469a.552.552 0 0 1 .42-.189h7.004c3.776 0 6.498 2.804 6.498 6.47-.136 2.378-1.369 4.502-3.249 5.598 1.658.765 3.9 2.49 3.9 5.737 0 3.936-2.875 6.783-6.813 6.783h-7.34c-.329 0-.595-.3-.595-.669v-23.293m7.906 20.727c.895.011 1.757-.382 2.393-1.091.636-.71.992-1.676.99-2.684 0-2.156-1.82-3.688-3.833-3.688h-4.284v7.549l4.734-.086zm-.498-10.698c.884.03 1.737-.362 2.35-1.08.614-.716.93-1.69.87-2.684.06-.98-.26-1.942-.877-2.636-.618-.695-1.472-1.055-2.343-.987h-4.169v7.387h4.169zM303.813 155.07c0-.177.058-.345.162-.469a.496.496 0 0 1 .388-.188h7.885c1.665-.032 3.271.747 4.458 2.163 1.187 1.415 1.855 3.348 1.855 5.365-.073 3.224-1.778 6.059-4.288 7.131l3.969 8.916a.776.776 0 0 1 .012.687c-.103.214-.297.339-.5.324h-2.265c-.191.005-.37-.12-.462-.323l-3.853-9.292h-4.378v8.948c-.009.36-.245.65-.541.667h-1.892c-.304 0-.55-.299-.55-.667v-23.23m8.195 11.26c1.952-.03 3.528-1.938 3.552-4.302-.058-2.326-1.631-4.174-3.552-4.173h-5.15v8.518l5.15-.043zM320.624 178.097l11.39-23.293a.881.881 0 0 1 .626-.392h.376a.858.858 0 0 1 .626.392l11.389 23.293a.577.577 0 0 1-.032.626.679.679 0 0 1-.606.274h-2.335a.895.895 0 0 1-.865-.508l-2.278-4.743h-12.209c-.74 1.588-1.515 3.176-2.278 4.743a.928.928 0 0 1-.842.508h-2.347a.667.667 0 0 1-.607-.273.568.568 0 0 1-.019-.627m16.821-7.316l-4.555-9.466h-.194l-4.555 9.466h9.304zM348.058 155.07c0-.176.062-.345.174-.469a.552.552 0 0 1 .42-.189h7c3.783 0 6.493 2.804 6.493 6.47-.132 2.38-1.365 4.505-3.247 5.598 1.657.765 3.908 2.49 3.908 5.737 0 3.936-2.873 6.783-6.81 6.783h-7.345c-.328 0-.593-.3-.593-.669v-23.293m7.91 20.727c.89.006 1.746-.39 2.376-1.1.63-.708.981-1.672.976-2.675 0-2.156-1.82-3.688-3.83-3.688h-4.272v7.549l4.75-.086zm-.508-10.698c.884.03 1.737-.362 2.35-1.08.613-.716.928-1.69.868-2.684.06-.98-.26-1.942-.876-2.636-.617-.695-1.471-1.055-2.342-.987h-4.213v7.387h4.213zM364.892 178.097l11.4-23.293a.884.884 0 0 1 .638-.392h.365a.884.884 0 0 1 .638.392l11.343 23.293c.112.197.1.434-.03.621a.678.678 0 0 1-.597.28H386.3c-.373.019-.717-.186-.855-.509l-2.28-4.743H370.98c-.74 1.588-1.516 3.176-2.28 4.743a.988.988 0 0 1-.855.508h-2.36a.668.668 0 0 1-.608-.273.567.567 0 0 1-.018-.627m16.837-7.316l-4.56-9.466h-.182l-4.56 9.466h9.302zM392.302 155.03c.014-.346.255-.618.548-.618h.724l12.502 17.156v-16.214c0-.171.058-.335.161-.455a.498.498 0 0 1 .387-.183h1.845c.297.005.538.286.548.638v23.028c-.014.347-.255.618-.548.618h-.75l-12.468-17.69v16.633c0 .358-.245.649-.547.649h-1.82c-.296-.016-.533-.298-.547-.65V155.03"/><path fill="#09A590" d="M392.24 63.054c.097-24.9-14.224-47.525-36.551-57.75A59.66 59.66 0 0 0 331.615 0H330.943c-1.461.177-2.559 1.441-2.548 2.937v17.921a2.996 2.996 0 0 0 .801 2.137 2.897 2.897 0 0 0 2.057.923c10.196.084 19.94 4.284 27.09 11.675 7.149 7.392 11.116 17.37 11.028 27.737v.49c-.022.793.269 1.562.807 2.137.54.574 1.281.906 2.061.922h17.193a2.907 2.907 0 0 0 2.061-.922c.539-.575.83-1.344.808-2.138v-.744M338.716 43.275c-3.567.009-6.95 1.539-9.257 4.187a11.986 11.986 0 0 0-3.032 7.976 12.465 12.465 0 0 0 3.032 8.175c2.286 2.683 5.677 4.24 9.257 4.25 3.322-.06 6.483-1.404 8.788-3.734 2.305-2.33 3.564-5.457 3.5-8.691.027-3.194-1.255-6.267-3.56-8.54-2.307-2.272-5.447-3.557-8.728-3.57"/></g></svg>