<svg xmlns="http://www.w3.org/2000/svg" xmlns:xlink="http://www.w3.org/1999/xlink" width="420" height="123" viewBox="0 0 420 123"><defs><path id="a" d="M0 .5h420v122H0z"/></defs><g fill="none" fill-rule="evenodd"><mask id="b" fill="#fff"><use xlink:href="#a"/></mask><g mask="url(#b)"><path fill="#00A9CE" d="M0 122.5L208 2 0-118.5z"/><path fill="#00A9CE" d="M312 1.778L207.224-58.306v4.08l97.66 56.004-97.66 56.003v4.08L312 1.778zm-18.156 0l-86.62 49.672v4.08l93.735-53.752-93.735-53.753v4.08l86.62 49.673zm-86.62-43.341l75.58 43.34-75.58 43.341v4.08l82.694-47.42-82.694-47.422v4.08zm64.539 43.34l-64.54 37.01v4.08l71.655-41.09-71.654-41.09v4.08l64.539 37.01zM207.223-28.9l53.499 30.679-53.498 30.678v4.08l60.613-34.758-60.613-34.76v4.08zm0 33.78l5.41-3.101-5.41-3.103V4.88zm42.458-3.101l-42.457 24.347v4.08l49.572-28.427-49.572-28.428v4.08L249.68 1.778zm-42.457 22.096l38.531-22.096-38.531-22.097v4.08L238.64 1.779l-31.416 18.015v4.08zm0-31.53v4.08l9.335 5.354-9.335 5.353v4.08l16.45-9.433-16.45-9.434zm20.375 9.434l-20.375 11.684v4.08l27.49-15.764-27.49-15.765v4.08l20.375 11.685z"/><path fill="#FF585D" d="M155.224 92.958L208 62.25l-52.776-30.708z"/><path stroke="#000" stroke-width="3" d="M314 61.084L418.776.834 314-59.416z"/></g></g></svg>