<svg xmlns="http://www.w3.org/2000/svg" xmlns:xlink="http://www.w3.org/1999/xlink" width="456" height="217" viewBox="0 0 456 217"><defs><path id="a" d="M0 0h456v217H0z"/></defs><g fill="none" fill-rule="evenodd"><mask id="b" fill="#fff"><use xlink:href="#a"/></mask><g mask="url(#b)"><path fill="#00A9CE" d="M0 44l304 175.5L0 395z"/><path fill="#FEDD00" d="M227 0l77 44-77 44z"/><path fill="#00A9CE" d="M304 43l152 88-152 88z"/><g fill="#000"><path d="M264.3 147.274a5.827 5.827 0 0 0-5.82 5.822c0 .585.1 1.147.26 1.679l-27.19 15.699a5.787 5.787 0 0 0-4.23-1.842 5.827 5.827 0 0 0-5.82 5.822c0 .584.09 1.143.25 1.676l-27.19 15.697a5.784 5.784 0 0 0-4.23-1.843 5.827 5.827 0 0 0-5.82 5.823c0 .584.1 1.144.26 1.676l-27.19 15.697a5.828 5.828 0 0 0-2.88-1.673v-31.395a5.826 5.826 0 0 0 4.47-5.658 5.827 5.827 0 0 0-4.47-5.659v-31.39a5.825 5.825 0 0 0 4.47-5.658 5.825 5.825 0 0 0-4.47-5.658v-31.39a5.825 5.825 0 0 0 4.47-5.658 5.826 5.826 0 0 0-4.47-5.658V51.988a5.861 5.861 0 0 0 2.87-1.662l27.19 15.699a5.635 5.635 0 0 0-.25 1.651c0 3.21 2.61 5.822 5.82 5.822 1.66 0 3.15-.705 4.21-1.823l27.21 15.706a5.696 5.696 0 0 0-.25 1.66c0 3.21 2.61 5.822 5.82 5.822 1.66 0 3.16-.708 4.22-1.83l27.19 15.7a5.68 5.68 0 0 0-.25 1.657c0 3.21 2.61 5.822 5.82 5.822 1.66 0 3.16-.706 4.22-1.827l27.2 15.702a5.664 5.664 0 0 0 0 3.336l-27.19 15.696a5.782 5.782 0 0 0-4.23-1.845zM152 44v175.513l152-87.756L152 44z"/><path d="M198.91 103.892l1.34 2.335 18.49-10.676-1.34-2.335-18.49 10.676M188.98 99.721h2.7V78.368h-2.7zM161.92 82.539l1.35 2.335 18.49-10.677-1.35-2.335-18.49 10.677M198.91 116.904l18.49 10.677 1.34-2.335-18.49-10.677-1.34 2.335M198.91 146.598l1.34 2.335 18.49-10.676-1.34-2.334-18.49 10.675M188.98 142.429h2.7v-21.354h-2.7zM161.92 95.551l18.49 10.676 1.35-2.335-18.49-10.676-1.35 2.335M161.92 125.246l1.35 2.335 18.49-10.677-1.35-2.335-18.49 10.677M161.92 138.257l18.49 10.676 1.35-2.335-18.49-10.675-1.35 2.334M161.92 167.952l1.35 2.335 18.49-10.677-1.35-2.335-18.49 10.677M161.92 180.964l18.49 10.676 1.35-2.335-18.49-10.676-1.35 2.335M262.95 142.424h2.7v-21.353h-2.7zM225.97 121.072h2.7V99.718h-2.7zM235.89 125.242l1.35 2.334 18.49-10.677-1.35-2.334-18.49 10.677M198.91 159.61l18.49 10.677 1.34-2.335-18.49-10.677-1.34 2.335M188.98 185.135h2.7v-21.354h-2.7zM225.97 163.777h2.7v-21.353h-2.7zM235.89 138.253l18.49 10.676 1.35-2.333-18.49-10.678-1.35 2.335M190.33 147.274a5.827 5.827 0 0 0-5.82 5.822c0 3.21 2.61 5.823 5.82 5.823 3.21 0 5.83-2.613 5.83-5.823 0-3.21-2.62-5.822-5.83-5.822M190.33 104.563a5.828 5.828 0 0 0-5.82 5.823c0 3.21 2.61 5.822 5.82 5.822 3.21 0 5.83-2.612 5.83-5.822s-2.62-5.823-5.83-5.823M227.32 125.925a5.827 5.827 0 0 0-5.82 5.822c0 3.21 2.61 5.822 5.82 5.822 3.21 0 5.82-2.612 5.82-5.822s-2.61-5.822-5.82-5.822"/></g></g></g></svg>